<svg width="18" height="14" viewBox="0 0 18 14" fill="none" xmlns="http://www.w3.org/2000/svg">
<path d="M17.4629 6.83984C17.4629 6.98307 17.4076 7.10677 17.2969 7.21094L11.0371 13.4902C10.9329 13.5944 10.8158 13.6465 10.6855 13.6465C10.5423 13.6465 10.4219 13.5977 10.3242 13.5C10.2331 13.4089 10.1875 13.2982 10.1875 13.168C10.1875 13.0964 10.1973 13.028 10.2168 12.9629C10.2428 12.8978 10.2786 12.8424 10.3242 12.7969L13.5078 9.59375L16.3496 6.91797L16.4766 7.24023L13.9082 7.33789H0.841797C0.705078 7.33789 0.587891 7.29232 0.490234 7.20117C0.399089 7.11003 0.353516 6.98958 0.353516 6.83984C0.353516 6.69661 0.399089 6.57943 0.490234 6.48828C0.587891 6.39714 0.705078 6.35156 0.841797 6.35156H13.9082L16.4766 6.44922L16.3496 6.77148L13.5078 4.08594L10.3242 0.882812C10.2786 0.84375 10.2428 0.791667 10.2168 0.726562C10.1973 0.661458 10.1875 0.593099 10.1875 0.521484C10.1875 0.391276 10.2331 0.280599 10.3242 0.189453C10.4219 0.0917969 10.5423 0.0429688 10.6855 0.0429688C10.7507 0.0429688 10.8158 0.0592448 10.8809 0.0917969C10.9525 0.117839 11.0306 0.173177 11.1152 0.257812L17.2969 6.47852C17.4076 6.58268 17.4629 6.70312 17.4629 6.83984Z" fill="#F9F8FF"/>
</svg>
