<svg width="28" height="29" viewBox="0 0 28 29" xmlns="http://www.w3.org/2000/svg">
<path d="M6.38672 25.2852C5.21484 25.2852 4.32812 24.9922 3.72656 24.4062C3.125 23.8203 2.82422 22.9414 2.82422 21.7695V8.25781C2.82422 7.08594 3.125 6.20703 3.72656 5.62109C4.32812 5.02734 5.21484 4.73047 6.38672 4.73047H21.5859C22.7734 4.73047 23.6641 5.02734 24.2578 5.62109C24.8516 6.21484 25.1484 7.09375 25.1484 8.25781V21.7695C25.1484 22.9336 24.8516 23.8086 24.2578 24.3945C23.6641 24.9883 22.7734 25.2852 21.5859 25.2852H6.38672ZM6.29297 23.3047H21.668C22.1445 23.3047 22.5117 23.1797 22.7695 22.9297C23.0352 22.6797 23.168 22.3008 23.168 21.793V11.4688C23.168 10.9688 23.0352 10.5938 22.7695 10.3438C22.5117 10.0938 22.1445 9.96875 21.668 9.96875H6.29297C5.81641 9.96875 5.45312 10.0938 5.20312 10.3438C4.95312 10.5938 4.82812 10.9688 4.82812 11.4688V21.793C4.82812 22.3008 4.95312 22.6797 5.20312 22.9297C5.45312 23.1797 5.81641 23.3047 6.29297 23.3047ZM11.8477 13.8711C11.6523 13.8711 11.5117 13.8359 11.4258 13.7656C11.3477 13.6953 11.3086 13.5625 11.3086 13.3672V12.7227C11.3086 12.5273 11.3477 12.3945 11.4258 12.3242C11.5117 12.2461 11.6523 12.207 11.8477 12.207H12.4922C12.6875 12.207 12.8203 12.2461 12.8906 12.3242C12.9688 12.3945 13.0078 12.5273 13.0078 12.7227V13.3672C13.0078 13.5625 12.9688 13.6953 12.8906 13.7656C12.8203 13.8359 12.6875 13.8711 12.4922 13.8711H11.8477ZM15.4922 13.8711C15.2969 13.8711 15.1602 13.8359 15.082 13.7656C15.0117 13.6953 14.9766 13.5625 14.9766 13.3672V12.7227C14.9766 12.5273 15.0117 12.3945 15.082 12.3242C15.1602 12.2461 15.2969 12.207 15.4922 12.207H16.1484C16.3438 12.207 16.4805 12.2461 16.5586 12.3242C16.6367 12.3945 16.6758 12.5273 16.6758 12.7227V13.3672C16.6758 13.5625 16.6367 13.6953 16.5586 13.7656C16.4805 13.8359 16.3438 13.8711 16.1484 13.8711H15.4922ZM19.1484 13.8711C18.9453 13.8711 18.8047 13.8359 18.7266 13.7656C18.6562 13.6953 18.6211 13.5625 18.6211 13.3672V12.7227C18.6211 12.5273 18.6562 12.3945 18.7266 12.3242C18.8047 12.2461 18.9453 12.207 19.1484 12.207H19.8047C20 12.207 20.1328 12.2461 20.2031 12.3242C20.2812 12.3945 20.3203 12.5273 20.3203 12.7227V13.3672C20.3203 13.5625 20.2812 13.6953 20.2031 13.7656C20.1328 13.8359 20 13.8711 19.8047 13.8711H19.1484ZM8.19141 17.4805C7.98828 17.4805 7.84766 17.4453 7.76953 17.375C7.69922 17.2969 7.66406 17.1602 7.66406 16.9648V16.3086C7.66406 16.1133 7.69922 15.9805 7.76953 15.9102C7.84766 15.8398 7.98828 15.8047 8.19141 15.8047H8.83594C9.03906 15.8047 9.17578 15.8398 9.24609 15.9102C9.32422 15.9805 9.36328 16.1133 9.36328 16.3086V16.9648C9.36328 17.1602 9.32422 17.2969 9.24609 17.375C9.17578 17.4453 9.03906 17.4805 8.83594 17.4805H8.19141ZM11.8477 17.4805C11.6523 17.4805 11.5117 17.4453 11.4258 17.375C11.3477 17.2969 11.3086 17.1602 11.3086 16.9648V16.3086C11.3086 16.1133 11.3477 15.9805 11.4258 15.9102C11.5117 15.8398 11.6523 15.8047 11.8477 15.8047H12.4922C12.6875 15.8047 12.8203 15.8398 12.8906 15.9102C12.9688 15.9805 13.0078 16.1133 13.0078 16.3086V16.9648C13.0078 17.1602 12.9688 17.2969 12.8906 17.375C12.8203 17.4453 12.6875 17.4805 12.4922 17.4805H11.8477ZM15.4922 17.4805C15.2969 17.4805 15.1602 17.4453 15.082 17.375C15.0117 17.2969 14.9766 17.1602 14.9766 16.9648V16.3086C14.9766 16.1133 15.0117 15.9805 15.082 15.9102C15.1602 15.8398 15.2969 15.8047 15.4922 15.8047H16.1484C16.3438 15.8047 16.4805 15.8398 16.5586 15.9102C16.6367 15.9805 16.6758 16.1133 16.6758 16.3086V16.9648C16.6758 17.1602 16.6367 17.2969 16.5586 17.375C16.4805 17.4453 16.3438 17.4805 16.1484 17.4805H15.4922ZM19.1484 17.4805C18.9453 17.4805 18.8047 17.4453 18.7266 17.375C18.6562 17.2969 18.6211 17.1602 18.6211 16.9648V16.3086C18.6211 16.1133 18.6562 15.9805 18.7266 15.9102C18.8047 15.8398 18.9453 15.8047 19.1484 15.8047H19.8047C20 15.8047 20.1328 15.8398 20.2031 15.9102C20.2812 15.9805 20.3203 16.1133 20.3203 16.3086V16.9648C20.3203 17.1602 20.2812 17.2969 20.2031 17.375C20.1328 17.4453 20 17.4805 19.8047 17.4805H19.1484ZM8.19141 21.0664C7.98828 21.0664 7.84766 21.0312 7.76953 20.9609C7.69922 20.8906 7.66406 20.7578 7.66406 20.5625V19.918C7.66406 19.7148 7.69922 19.5781 7.76953 19.5078C7.84766 19.4375 7.98828 19.4023 8.19141 19.4023H8.83594C9.03906 19.4023 9.17578 19.4375 9.24609 19.5078C9.32422 19.5781 9.36328 19.7148 9.36328 19.918V20.5625C9.36328 20.7578 9.32422 20.8906 9.24609 20.9609C9.17578 21.0312 9.03906 21.0664 8.83594 21.0664H8.19141ZM11.8477 21.0664C11.6523 21.0664 11.5117 21.0312 11.4258 20.9609C11.3477 20.8906 11.3086 20.7578 11.3086 20.5625V19.918C11.3086 19.7148 11.3477 19.5781 11.4258 19.5078C11.5117 19.4375 11.6523 19.4023 11.8477 19.4023H12.4922C12.6875 19.4023 12.8203 19.4375 12.8906 19.5078C12.9688 19.5781 13.0078 19.7148 13.0078 19.918V20.5625C13.0078 20.7578 12.9688 20.8906 12.8906 20.9609C12.8203 21.0312 12.6875 21.0664 12.4922 21.0664H11.8477ZM15.4922 21.0664C15.2969 21.0664 15.1602 21.0312 15.082 20.9609C15.0117 20.8906 14.9766 20.7578 14.9766 20.5625V19.918C14.9766 19.7148 15.0117 19.5781 15.082 19.5078C15.1602 19.4375 15.2969 19.4023 15.4922 19.4023H16.1484C16.3438 19.4023 16.4805 19.4375 16.5586 19.5078C16.6367 19.5781 16.6758 19.7148 16.6758 19.918V20.5625C16.6758 20.7578 16.6367 20.8906 16.5586 20.9609C16.4805 21.0312 16.3438 21.0664 16.1484 21.0664H15.4922Z"/>
</svg>
