<svg width="33" height="29" viewBox="0 0 33 29" xmlns="http://www.w3.org/2000/svg">
<path d="M6.38672 25.2852C5.21484 25.2852 4.32812 24.9883 3.72656 24.3945C3.125 23.8086 2.82422 22.9336 2.82422 21.7695V10.1562C2.82422 8.99219 3.125 8.11328 3.72656 7.51953C4.32812 6.92578 5.21484 6.62891 6.38672 6.62891H9.43359C9.86328 6.62891 10.1797 6.57813 10.3828 6.47656C10.5938 6.375 10.8281 6.1875 11.0859 5.91406L11.9648 4.94141C12.2461 4.63672 12.5547 4.40625 12.8906 4.25C13.2266 4.08594 13.6758 4.00391 14.2383 4.00391H18.6562C19.2266 4.00391 19.6758 4.08594 20.0039 4.25C20.3398 4.40625 20.6484 4.63672 20.9297 4.94141L21.8203 5.91406C21.9922 6.09375 22.1484 6.23828 22.2891 6.34766C22.4297 6.44922 22.5898 6.52344 22.7695 6.57031C22.9492 6.60937 23.1875 6.62891 23.4844 6.62891H26.5781C27.75 6.62891 28.6367 6.92578 29.2383 7.51953C29.8398 8.11328 30.1406 8.99219 30.1406 10.1562V21.7695C30.1406 22.9336 29.8398 23.8086 29.2383 24.3945C28.6367 24.9883 27.75 25.2852 26.5781 25.2852H6.38672ZM6.46875 23.3047H26.4961C27.0273 23.3047 27.4336 23.1641 27.7148 22.8828C28.0039 22.6016 28.1484 22.1836 28.1484 21.6289V10.2969C28.1484 9.74219 28.0039 9.32422 27.7148 9.04297C27.4336 8.76172 27.0273 8.62109 26.4961 8.62109H22.9336C22.4336 8.62109 22.0312 8.56641 21.7266 8.45703C21.4219 8.33984 21.1328 8.12891 20.8594 7.82422L19.9922 6.86328C19.6875 6.52734 19.4102 6.30078 19.1602 6.18359C18.918 6.06641 18.5547 6.00781 18.0703 6.00781H14.8359C14.3516 6.00781 13.9844 6.06641 13.7344 6.18359C13.4922 6.30078 13.2148 6.53125 12.9023 6.875L12.0469 7.82422C11.7656 8.12891 11.4727 8.33984 11.168 8.45703C10.8633 8.56641 10.4609 8.62109 9.96094 8.62109H6.46875C5.9375 8.62109 5.53125 8.76172 5.25 9.04297C4.96875 9.32422 4.82812 9.74219 4.82812 10.2969V21.6289C4.82812 22.1836 4.96875 22.6016 5.25 22.8828C5.53125 23.1641 5.9375 23.3047 6.46875 23.3047ZM16.4883 21.7695C15.3789 21.7695 14.3672 21.5 13.4531 20.9609C12.5391 20.4219 11.8125 19.6992 11.2734 18.793C10.7422 17.8789 10.4766 16.8633 10.4766 15.7461C10.4766 14.6289 10.7422 13.6133 11.2734 12.6992C11.8125 11.7852 12.5391 11.0586 13.4531 10.5195C14.3672 9.98047 15.3789 9.71094 16.4883 9.71094C17.5977 9.71094 18.6055 9.98047 19.5117 10.5195C20.4258 11.0586 21.1523 11.7852 21.6914 12.6992C22.2305 13.6133 22.5 14.6289 22.5 15.7461C22.5 16.8633 22.2305 17.8789 21.6914 18.793C21.1523 19.6992 20.4258 20.4219 19.5117 20.9609C18.6055 21.5 17.5977 21.7695 16.4883 21.7695ZM16.4883 19.9297C17.2617 19.9297 17.9609 19.7422 18.5859 19.3672C19.2188 18.9922 19.7227 18.4883 20.0977 17.8555C20.4805 17.2227 20.6719 16.5195 20.6719 15.7461C20.6719 14.9727 20.4805 14.2695 20.0977 13.6367C19.7227 12.9961 19.2188 12.4922 18.5859 12.125C17.9609 11.75 17.2617 11.5625 16.4883 11.5625C15.7148 11.5625 15.0117 11.75 14.3789 12.125C13.7461 12.4922 13.2422 12.9961 12.8672 13.6367C12.4922 14.2695 12.3047 14.9727 12.3047 15.7461C12.3047 16.5195 12.4922 17.2227 12.8672 17.8555C13.25 18.4883 13.7539 18.9922 14.3789 19.3672C15.0117 19.7422 15.7148 19.9297 16.4883 19.9297ZM22.9102 11.7148C22.9102 11.3398 23.0508 11.0117 23.332 10.7305C23.6133 10.4492 23.9453 10.3086 24.3281 10.3086C24.7031 10.3086 25.0312 10.4492 25.3125 10.7305C25.5938 11.0117 25.7344 11.3398 25.7344 11.7148C25.7344 12.1055 25.5938 12.4375 25.3125 12.7109C25.0391 12.9844 24.7109 13.1211 24.3281 13.1211C23.9453 13.1211 23.6133 12.9883 23.332 12.7227C23.0508 12.4492 22.9102 12.1133 22.9102 11.7148Z"/>
</svg>
