<svg width="26" height="29" viewBox="0 0 26 29" xmlns="http://www.w3.org/2000/svg">
<path d="M10.1953 24.8281C9.71094 24.8281 9.28906 24.6055 8.92969 24.1602L3.19922 16.918C3.06641 16.7617 2.96875 16.6094 2.90625 16.4609C2.85156 16.3047 2.82422 16.1484 2.82422 15.9922C2.82422 15.6484 2.9375 15.3672 3.16406 15.1484C3.39062 14.9219 3.68359 14.8086 4.04297 14.8086C4.45703 14.8086 4.80859 15.0039 5.09766 15.3945L10.1484 21.9453L19.9336 6.38281C20.0898 6.14844 20.2461 5.98438 20.4023 5.89062C20.5664 5.78906 20.7734 5.73828 21.0234 5.73828C21.3672 5.73828 21.6445 5.84766 21.8555 6.06641C22.0742 6.27734 22.1836 6.55469 22.1836 6.89844C22.1836 7.03906 22.1602 7.18359 22.1133 7.33203C22.0664 7.47266 21.9883 7.62891 21.8789 7.80078L11.4375 24.1719C11.1406 24.6094 10.7266 24.8281 10.1953 24.8281Z"/>
</svg>
