<svg width="26" height="29" viewBox="0 0 26 29" xmlns="http://www.w3.org/2000/svg">
<path d="M12.5625 20.9961C12.2344 20.9961 11.9375 20.8672 11.6719 20.6094L3.16406 11.9023C3.0625 11.793 2.98047 11.6719 2.91797 11.5391C2.85547 11.3984 2.82422 11.2461 2.82422 11.082C2.82422 10.8633 2.875 10.668 2.97656 10.4961C3.07812 10.3164 3.21484 10.1758 3.38672 10.0742C3.56641 9.97266 3.76562 9.92188 3.98438 9.92188C4.30469 9.92188 4.58203 10.0352 4.81641 10.2617L13.125 18.7695H11.9883L20.2852 10.2617C20.5352 10.0352 20.8164 9.92188 21.1289 9.92188C21.3477 9.92188 21.543 9.97266 21.7148 10.0742C21.8945 10.1758 22.0352 10.3164 22.1367 10.4961C22.2383 10.668 22.2891 10.8633 22.2891 11.082C22.2891 11.3945 22.1758 11.668 21.9492 11.9023L13.4297 20.5977C13.3125 20.7305 13.1797 20.832 13.0312 20.9023C12.8828 20.9648 12.7266 20.9961 12.5625 20.9961Z"/>
</svg>
