<svg width="17" height="29" viewBox="0 0 17 29" xmlns="http://www.w3.org/2000/svg">
<path d="M1.39453 14.9961C1.39453 14.832 1.42188 14.6797 1.47656 14.5391C1.53906 14.3906 1.63672 14.2539 1.76953 14.1289L10.4883 5.60938C10.707 5.38281 10.9766 5.26953 11.2969 5.26953C11.5156 5.26953 11.7109 5.32031 11.8828 5.42188C12.0625 5.52344 12.2031 5.66016 12.3047 5.83203C12.4141 6.00391 12.4688 6.20313 12.4688 6.42969C12.4688 6.74219 12.3516 7.01562 12.1172 7.25L4.19531 14.9961L12.1172 22.7422C12.3516 22.9766 12.4688 23.25 12.4688 23.5625C12.4688 23.7812 12.4141 23.9766 12.3047 24.1484C12.2031 24.3281 12.0625 24.4688 11.8828 24.5703C11.7109 24.6719 11.5156 24.7227 11.2969 24.7227C10.9766 24.7227 10.707 24.6094 10.4883 24.3828L1.76953 15.8633C1.63672 15.7383 1.53906 15.6055 1.47656 15.4648C1.42188 15.3164 1.39453 15.1602 1.39453 14.9961Z"/>
</svg>
