<svg width="26" height="29" viewBox="0 0 26 29" xmlns="http://www.w3.org/2000/svg">
<path d="M3.16406 18.1367L11.6719 9.44141C11.9297 9.17578 12.2266 9.04297 12.5625 9.04297C12.7266 9.04297 12.8828 9.07812 13.0312 9.14844C13.1797 9.21094 13.3125 9.30859 13.4297 9.44141L21.9492 18.1367C22.1758 18.3633 22.2891 18.6406 22.2891 18.9688C22.2891 19.1797 22.2383 19.375 22.1367 19.5547C22.0352 19.7266 21.8945 19.8633 21.7148 19.9648C21.543 20.0664 21.3477 20.1172 21.1289 20.1172C20.793 20.1172 20.5117 20.0039 20.2852 19.7773L11.9883 11.2695H13.125L4.81641 19.7773C4.59766 20.0039 4.32031 20.1172 3.98438 20.1172C3.76562 20.1172 3.56641 20.0664 3.38672 19.9648C3.21484 19.8633 3.07812 19.7266 2.97656 19.5547C2.875 19.375 2.82422 19.1797 2.82422 18.9688C2.82422 18.7969 2.85547 18.6445 2.91797 18.5117C2.98047 18.3711 3.0625 18.2461 3.16406 18.1367Z"/>
</svg>
