<svg width="17" height="29" viewBox="0 0 17 29" xmlns="http://www.w3.org/2000/svg">
<path d="M15.3398 14.9961C15.3398 15.1602 15.3086 15.3164 15.2461 15.4648C15.1836 15.6055 15.0859 15.7383 14.9531 15.8633L6.24609 24.3828C6.02734 24.6094 5.75781 24.7227 5.4375 24.7227C5.21094 24.7227 5.01172 24.6719 4.83984 24.5703C4.66797 24.4688 4.52734 24.3281 4.41797 24.1484C4.31641 23.9766 4.26562 23.7812 4.26562 23.5625C4.26562 23.25 4.38281 22.9766 4.61719 22.7422L12.5391 14.9961L4.61719 7.25C4.38281 7.01562 4.26562 6.74219 4.26562 6.42969C4.26562 6.20313 4.31641 6.00391 4.41797 5.83203C4.52734 5.66016 4.66797 5.52344 4.83984 5.42188C5.01172 5.32031 5.21094 5.26953 5.4375 5.26953C5.75781 5.26953 6.02734 5.38281 6.24609 5.60938L14.9531 14.1289C15.0859 14.2539 15.1836 14.3906 15.2461 14.5391C15.3086 14.6797 15.3398 14.832 15.3398 14.9961Z"/>
</svg>
