<svg width="27" height="29" viewBox="0 0 27 29" xmlns="http://www.w3.org/2000/svg">
<path d="M13.3711 26.3867C11.8086 26.3867 10.3398 26.0859 8.96484 25.4844C7.59766 24.8906 6.39062 24.0703 5.34375 23.0234C4.29688 21.9766 3.47266 20.7695 2.87109 19.4023C2.27734 18.0273 1.98047 16.5586 1.98047 14.9961C1.98047 13.4414 2.27734 11.9766 2.87109 10.6016C3.46484 9.22656 4.28516 8.01562 5.33203 6.96875C6.38672 5.92188 7.59766 5.10156 8.96484 4.50781C10.3398 3.91406 11.8047 3.61719 13.3594 3.61719C14.9141 3.61719 16.3789 3.91406 17.7539 4.50781C19.1289 5.10156 20.3398 5.92188 21.3867 6.96875C22.4336 8.01562 23.2539 9.22656 23.8477 10.6016C24.4492 11.9766 24.75 13.4414 24.75 14.9961C24.75 16.5586 24.4531 18.0273 23.8594 19.4023C23.2656 20.7695 22.4453 21.9766 21.3984 23.0234C20.3516 24.0703 19.1406 24.8906 17.7656 25.4844C16.3906 26.0859 14.9258 26.3867 13.3711 26.3867ZM13.3711 24.3008C14.6602 24.3008 15.8672 24.0586 16.9922 23.5742C18.1172 23.0977 19.1055 22.4336 19.957 21.582C20.8086 20.7305 21.4727 19.7422 21.9492 18.6172C22.4258 17.4922 22.6641 16.2852 22.6641 14.9961C22.6641 13.707 22.4258 12.5 21.9492 11.375C21.4727 10.25 20.8086 9.26172 19.957 8.41016C19.1055 7.55859 18.1133 6.89453 16.9805 6.41797C15.8555 5.94141 14.6484 5.70312 13.3594 5.70312C12.0703 5.70312 10.8633 5.94141 9.73828 6.41797C8.62109 6.89453 7.63672 7.55859 6.78516 8.41016C5.93359 9.26172 5.26953 10.25 4.79297 11.375C4.31641 12.5 4.07812 13.707 4.07812 14.9961C4.07812 16.2852 4.31641 17.4922 4.79297 18.6172C5.26953 19.7422 5.93359 20.7305 6.78516 21.582C7.63672 22.4336 8.625 23.0977 9.75 23.5742C10.875 24.0586 12.082 24.3008 13.3711 24.3008ZM8.17969 16.625C7.72656 16.625 7.33984 16.4648 7.01953 16.1445C6.69922 15.8242 6.53906 15.4375 6.53906 14.9844C6.53906 14.5312 6.69922 14.1445 7.01953 13.8242C7.33984 13.5039 7.72656 13.3438 8.17969 13.3438C8.625 13.3438 9.00781 13.5039 9.32812 13.8242C9.64844 14.1445 9.80859 14.5312 9.80859 14.9844C9.80859 15.4375 9.64844 15.8242 9.32812 16.1445C9.01562 16.4648 8.63281 16.625 8.17969 16.625ZM13.3594 16.625C12.9141 16.625 12.5273 16.4648 12.1992 16.1445C11.8789 15.8242 11.7188 15.4375 11.7188 14.9844C11.7188 14.5312 11.8789 14.1445 12.1992 13.8242C12.5273 13.5039 12.9141 13.3438 13.3594 13.3438C13.8125 13.3438 14.1992 13.5039 14.5195 13.8242C14.8398 14.1445 15 14.5312 15 14.9844C15 15.4375 14.8398 15.8242 14.5195 16.1445C14.1992 16.4648 13.8125 16.625 13.3594 16.625ZM18.5508 16.625C18.0977 16.625 17.7109 16.4648 17.3906 16.1445C17.0781 15.8242 16.9219 15.4375 16.9219 14.9844C16.9219 14.5312 17.0781 14.1445 17.3906 13.8242C17.7109 13.5039 18.0977 13.3438 18.5508 13.3438C18.9961 13.3438 19.3789 13.5039 19.6992 13.8242C20.0273 14.1445 20.1914 14.5312 20.1914 14.9844C20.1914 15.4375 20.0273 15.8242 19.6992 16.1445C19.3789 16.4648 18.9961 16.625 18.5508 16.625Z"/>
</svg>
