<svg width="18" height="20" viewBox="0 0 18 20" xmlns="http://www.w3.org/2000/svg">
<path d="M3.27344 11.6094C3.00781 11.6094 2.76562 11.5469 2.54688 11.4219C2.32812 11.2917 2.15104 11.1172 2.01562 10.8984C1.88542 10.6797 1.82031 10.4349 1.82031 10.1641C1.82031 9.89323 1.88542 9.64844 2.01562 9.42969C2.15104 9.21094 2.32812 9.03906 2.54688 8.91406C2.76562 8.78385 3.00781 8.71875 3.27344 8.71875C3.53906 8.71875 3.78125 8.78385 4 8.91406C4.22396 9.03906 4.40104 9.21094 4.53125 9.42969C4.66146 9.64844 4.72656 9.89323 4.72656 10.1641C4.72656 10.4349 4.66146 10.6797 4.53125 10.8984C4.40104 11.1172 4.22396 11.2917 4 11.4219C3.78125 11.5469 3.53906 11.6094 3.27344 11.6094ZM8.78125 11.6094C8.51562 11.6094 8.27344 11.5469 8.05469 11.4219C7.83594 11.2917 7.65885 11.1172 7.52344 10.8984C7.39323 10.6797 7.32812 10.4349 7.32812 10.1641C7.32812 9.89323 7.39323 9.64844 7.52344 9.42969C7.65885 9.21094 7.83594 9.03906 8.05469 8.91406C8.27344 8.78385 8.51562 8.71875 8.78125 8.71875C9.04688 8.71875 9.28906 8.78385 9.50781 8.91406C9.73177 9.03906 9.90885 9.21094 10.0391 9.42969C10.1693 9.64844 10.2344 9.89323 10.2344 10.1641C10.2344 10.4349 10.1693 10.6797 10.0391 10.8984C9.90885 11.1172 9.73177 11.2917 9.50781 11.4219C9.28906 11.5469 9.04688 11.6094 8.78125 11.6094ZM14.2969 11.6094C14.026 11.6094 13.7812 11.5469 13.5625 11.4219C13.3438 11.2917 13.1667 11.1172 13.0312 10.8984C12.901 10.6797 12.8359 10.4349 12.8359 10.1641C12.8359 9.89323 12.901 9.64844 13.0312 9.42969C13.1667 9.21094 13.3438 9.03906 13.5625 8.91406C13.7812 8.78385 14.026 8.71875 14.2969 8.71875C14.5573 8.71875 14.7969 8.78385 15.0156 8.91406C15.2396 9.03906 15.4167 9.21094 15.5469 9.42969C15.6771 9.64844 15.7422 9.89323 15.7422 10.1641C15.7422 10.4349 15.6771 10.6797 15.5469 10.8984C15.4167 11.1172 15.2396 11.2917 15.0156 11.4219C14.7969 11.5469 14.5573 11.6094 14.2969 11.6094Z" />
</svg>
