<svg width="27" height="29" viewBox="0 0 27 29" xmlns="http://www.w3.org/2000/svg">
<path d="M13.3711 26.3867C11.8086 26.3867 10.3398 26.0859 8.96484 25.4844C7.59766 24.8906 6.39062 24.0703 5.34375 23.0234C4.29688 21.9766 3.47266 20.7695 2.87109 19.4023C2.27734 18.0273 1.98047 16.5586 1.98047 14.9961C1.98047 13.4414 2.27734 11.9766 2.87109 10.6016C3.46484 9.22656 4.28516 8.01562 5.33203 6.96875C6.38672 5.92188 7.59766 5.10156 8.96484 4.50781C10.3398 3.91406 11.8047 3.61719 13.3594 3.61719C14.9141 3.61719 16.3789 3.91406 17.7539 4.50781C19.1289 5.10156 20.3398 5.92188 21.3867 6.96875C22.4336 8.01562 23.2539 9.22656 23.8477 10.6016C24.4492 11.9766 24.75 13.4414 24.75 14.9961C24.75 16.5586 24.4531 18.0273 23.8594 19.4023C23.2656 20.7695 22.4453 21.9766 21.3984 23.0234C20.3516 24.0703 19.1406 24.8906 17.7656 25.4844C16.3906 26.0859 14.9258 26.3867 13.3711 26.3867ZM13.3594 16.9766C13.9844 16.9766 14.3047 16.6523 14.3203 16.0039L14.4844 10.2266C14.4844 9.91406 14.3789 9.65234 14.168 9.44141C13.957 9.23047 13.6836 9.125 13.3477 9.125C13.0117 9.125 12.7383 9.23047 12.5273 9.44141C12.3242 9.64453 12.2266 9.90234 12.2344 10.2148L12.3867 16.0039C12.4023 16.6523 12.7266 16.9766 13.3594 16.9766ZM13.3594 20.75C13.7109 20.75 14.0156 20.6367 14.2734 20.4102C14.5391 20.1758 14.6719 19.8828 14.6719 19.5312C14.6719 19.1719 14.543 18.875 14.2852 18.6406C14.0273 18.4062 13.7188 18.2891 13.3594 18.2891C13.0078 18.2891 12.7031 18.4102 12.4453 18.6523C12.1875 18.8867 12.0586 19.1797 12.0586 19.5312C12.0586 19.875 12.1875 20.1641 12.4453 20.3984C12.7031 20.6328 13.0078 20.75 13.3594 20.75Z"/>
</svg>
