<svg width="23" height="19" viewBox="0 0 23 19" fill="none" xmlns="http://www.w3.org/2000/svg">
<path d="M11.2969 15.8984C10.349 15.8984 9.44792 15.7812 8.59375 15.5469C7.74479 15.3125 6.95573 15.0026 6.22656 14.6172C5.5026 14.2266 4.84896 13.7995 4.26562 13.3359C3.6875 12.8724 3.19271 12.4089 2.78125 11.9453C2.36979 11.4766 2.05469 11.0443 1.83594 10.6484C1.61719 10.2474 1.50781 9.92708 1.50781 9.6875C1.50781 9.39062 1.66667 8.98698 1.98438 8.47656C2.30208 7.96094 2.75781 7.41406 3.35156 6.83594C3.94531 6.2526 4.65625 5.70833 5.48438 5.20312L6.07812 5.78906C5.30208 6.2474 4.63542 6.73958 4.07812 7.26562C3.52604 7.78646 3.09896 8.26823 2.79688 8.71094C2.5 9.14844 2.35156 9.47396 2.35156 9.6875C2.35156 9.86979 2.45312 10.1302 2.65625 10.4688C2.85938 10.8021 3.15104 11.1745 3.53125 11.5859C3.91667 11.9922 4.375 12.4036 4.90625 12.8203C5.44271 13.2318 6.04427 13.612 6.71094 13.9609C7.3776 14.3099 8.09635 14.5911 8.86719 14.8047C9.63802 15.013 10.4479 15.1172 11.2969 15.1172C11.901 15.1172 12.4714 15.0651 13.0078 14.9609C13.5495 14.8516 14.0729 14.7057 14.5781 14.5234L15.2109 15.1562C14.612 15.3802 13.9896 15.5599 13.3438 15.6953C12.7031 15.8307 12.0208 15.8984 11.2969 15.8984ZM11.2969 3.47656C12.25 3.47656 13.1536 3.59375 14.0078 3.82812C14.862 4.05729 15.651 4.36458 16.375 4.75C17.1042 5.13542 17.7578 5.5625 18.3359 6.03125C18.9193 6.49479 19.4141 6.96094 19.8203 7.42969C20.2318 7.89323 20.5443 8.32552 20.7578 8.72656C20.9766 9.1224 21.0859 9.44271 21.0859 9.6875C21.0859 9.97917 20.9297 10.3802 20.6172 10.8906C20.3047 11.3958 19.8594 11.9375 19.2812 12.5156C18.7031 13.0885 18.013 13.625 17.2109 14.125L16.6172 13.5391C17.3672 13.0859 18.013 12.6042 18.5547 12.0938C19.0964 11.5833 19.513 11.112 19.8047 10.6797C20.0964 10.2422 20.2422 9.91146 20.2422 9.6875C20.2422 9.51562 20.1406 9.26562 19.9375 8.9375C19.7344 8.60417 19.4427 8.23177 19.0625 7.82031C18.6875 7.40885 18.2318 6.99479 17.6953 6.57812C17.1641 6.15625 16.5651 5.77083 15.8984 5.42188C15.237 5.06771 14.5182 4.78385 13.7422 4.57031C12.9661 4.35156 12.151 4.24219 11.2969 4.24219C10.7135 4.24219 10.1693 4.29427 9.66406 4.39844C9.16406 4.4974 8.66927 4.63542 8.17969 4.8125L7.55469 4.19531C8.13802 3.97135 8.73177 3.79688 9.33594 3.67188C9.94531 3.54167 10.599 3.47656 11.2969 3.47656ZM11.2969 13.8047C10.5312 13.8047 9.83594 13.6172 9.21094 13.2422C8.59115 12.8672 8.09375 12.3672 7.71875 11.7422C7.34896 11.1172 7.16406 10.4323 7.16406 9.6875C7.16406 9.30208 7.21094 8.9349 7.30469 8.58594C7.40365 8.23698 7.54427 7.91146 7.72656 7.60938L13.3516 13.2344C13.0495 13.4115 12.724 13.5521 12.375 13.6562C12.0312 13.7552 11.6719 13.8047 11.2969 13.8047ZM14.8906 11.6484L9.32812 6.08594C9.61458 5.91927 9.92448 5.79167 10.2578 5.70312C10.5911 5.61458 10.9375 5.57031 11.2969 5.57031C12.0521 5.57031 12.7422 5.75521 13.3672 6.125C13.9974 6.48958 14.4974 6.98438 14.8672 7.60938C15.2422 8.22917 15.4297 8.92188 15.4297 9.6875C15.4297 10.0417 15.3828 10.3854 15.2891 10.7188C15.1953 11.0521 15.0625 11.362 14.8906 11.6484ZM17.25 16.0859L4.6875 3.51562C4.61458 3.44792 4.57812 3.36458 4.57812 3.26562C4.57812 3.16146 4.61458 3.07552 4.6875 3.00781C4.76042 2.92969 4.84635 2.89323 4.94531 2.89844C5.04427 2.89844 5.13021 2.9349 5.20312 3.00781L17.7656 15.5703C17.8385 15.638 17.875 15.7188 17.875 15.8125C17.8802 15.9115 17.8438 16.0026 17.7656 16.0859C17.6927 16.1589 17.6068 16.1927 17.5078 16.1875C17.4089 16.1875 17.3229 16.1536 17.25 16.0859Z" fill="#F9F8FF"/>
</svg>
