<svg width="35" height="29" viewBox="0 0 35 29" xmlns="http://www.w3.org/2000/svg">
<path d="M17.4609 24.5586C15.9688 24.5586 14.5586 24.3789 13.2305 24.0195C11.9102 23.6602 10.6836 23.1836 9.55078 22.5898C8.42578 21.9961 7.41406 21.3438 6.51562 20.6328C5.61719 19.9219 4.85156 19.207 4.21875 18.4883C3.58594 17.7695 3.10156 17.1055 2.76562 16.4961C2.42969 15.8789 2.26172 15.3828 2.26172 15.0078C2.26172 14.5625 2.49219 13.9609 2.95312 13.2031C3.42188 12.4453 4.08594 11.6328 4.94531 10.7656C5.8125 9.89844 6.85938 9.08203 8.08594 8.31641L9.62109 9.85156C8.56641 10.4922 7.65625 11.1641 6.89062 11.8672C6.13281 12.5625 5.54688 13.1992 5.13281 13.7773C4.71875 14.3477 4.51172 14.7578 4.51172 15.0078C4.51172 15.2656 4.66016 15.6328 4.95703 16.1094C5.26172 16.5781 5.69531 17.0977 6.25781 17.668C6.82812 18.2383 7.50391 18.8125 8.28516 19.3906C9.06641 19.9688 9.9375 20.5 10.8984 20.9844C11.8672 21.4688 12.9023 21.8594 14.0039 22.1562C15.1055 22.4531 16.2578 22.6016 17.4609 22.6016C18.1719 22.6016 18.8594 22.5469 19.5234 22.4375C20.1953 22.3281 20.8438 22.1797 21.4688 21.9922L23.1094 23.6094C22.2422 23.9062 21.3398 24.1367 20.4023 24.3008C19.4648 24.4727 18.4844 24.5586 17.4609 24.5586ZM17.4609 5.46875C18.9609 5.46875 20.3789 5.64844 21.7148 6.00781C23.0508 6.36719 24.2812 6.83984 25.4062 7.42578C26.5312 8.01172 27.5391 8.66406 28.4297 9.38281C29.3281 10.0938 30.0898 10.8086 30.7148 11.5273C31.3398 12.2461 31.8164 12.9141 32.1445 13.5312C32.4805 14.1406 32.6484 14.6328 32.6484 15.0078C32.6484 15.4453 32.4258 16.0352 31.9805 16.7773C31.543 17.5195 30.9102 18.3164 30.082 19.168C29.2539 20.0117 28.2578 20.8164 27.0938 21.582L25.582 20.0703C26.5664 19.4531 27.418 18.8125 28.1367 18.1484C28.8633 17.4766 29.418 16.8594 29.8008 16.2969C30.1914 15.7344 30.3867 15.3047 30.3867 15.0078C30.3867 14.7891 30.2344 14.457 29.9297 14.0117C29.6328 13.5586 29.2031 13.043 28.6406 12.4648C28.0781 11.8867 27.4023 11.3047 26.6133 10.7188C25.832 10.1328 24.9609 9.58984 24 9.08984C23.0391 8.58203 22.0039 8.17578 20.8945 7.87109C19.793 7.56641 18.6484 7.41406 17.4609 7.41406C16.8047 7.41406 16.1719 7.46094 15.5625 7.55469C14.9531 7.64844 14.3555 7.78125 13.7695 7.95312L12.1406 6.33594C12.9609 6.0625 13.8086 5.85156 14.6836 5.70312C15.5664 5.54688 16.4922 5.46875 17.4609 5.46875ZM17.4609 21.0898C16.3281 21.0898 15.3008 20.8125 14.3789 20.2578C13.457 19.7031 12.7227 18.9648 12.1758 18.043C11.6289 17.1211 11.3555 16.1094 11.3555 15.0078C11.3555 14.5391 11.4023 14.0898 11.4961 13.6602C11.5977 13.2305 11.7461 12.8242 11.9414 12.4414L20.0039 20.5039C19.6133 20.6914 19.207 20.8359 18.7852 20.9375C18.3633 21.0391 17.9219 21.0898 17.4609 21.0898ZM23.0625 17.2812L15.1758 9.39453C15.5273 9.24609 15.8906 9.13281 16.2656 9.05469C16.6484 8.97656 17.0469 8.9375 17.4609 8.9375C18.5859 8.9375 19.6094 9.20703 20.5312 9.74609C21.4531 10.2852 22.1875 11.0156 22.7344 11.9375C23.2812 12.8516 23.5547 13.875 23.5547 15.0078C23.5547 15.4141 23.5117 15.8086 23.4258 16.1914C23.3398 16.5742 23.2188 16.9375 23.0625 17.2812ZM26.1445 24.7109L7.47656 6.05469C7.30469 5.89062 7.21875 5.6875 7.21875 5.44531C7.21875 5.19531 7.30469 4.99219 7.47656 4.83594C7.64062 4.65625 7.84375 4.56641 8.08594 4.56641C8.32812 4.56641 8.53906 4.65625 8.71875 4.83594L27.375 23.4805C27.5469 23.6523 27.6328 23.8516 27.6328 24.0781C27.6406 24.3125 27.5547 24.5234 27.375 24.7109C27.1953 24.8906 26.9883 24.9766 26.7539 24.9688C26.5195 24.9688 26.3164 24.8828 26.1445 24.7109Z"/>
</svg>
