<svg width="35" height="29" viewBox="0 0 35 29" xmlns="http://www.w3.org/2000/svg">
<path d="M17.4609 24.5586C15.9688 24.5586 14.5586 24.3789 13.2305 24.0195C11.9102 23.6602 10.6836 23.1836 9.55078 22.5898C8.42578 21.9961 7.41406 21.3438 6.51562 20.6328C5.61719 19.9219 4.85156 19.207 4.21875 18.4883C3.58594 17.7695 3.10156 17.1055 2.76562 16.4961C2.42969 15.8789 2.26172 15.3828 2.26172 15.0078C2.26172 14.6328 2.42969 14.1406 2.76562 13.5312C3.10156 12.9141 3.58594 12.2461 4.21875 11.5273C4.85938 10.8086 5.62891 10.0938 6.52734 9.38281C7.42578 8.66406 8.4375 8.01172 9.5625 7.42578C10.6953 6.83984 11.9219 6.36719 13.2422 6.00781C14.5625 5.64844 15.9688 5.46875 17.4609 5.46875C18.9609 5.46875 20.375 5.64844 21.7031 6.00781C23.0391 6.36719 24.2695 6.83984 25.3945 7.42578C26.5273 8.01172 27.5391 8.66406 28.4297 9.38281C29.3203 10.0938 30.0781 10.8086 30.7031 11.5273C31.3359 12.2461 31.8164 12.9141 32.1445 13.5312C32.4805 14.1406 32.6484 14.6328 32.6484 15.0078C32.6484 15.3828 32.4805 15.8789 32.1445 16.4961C31.8164 17.1055 31.3398 17.7695 30.7148 18.4883C30.0898 19.207 29.3281 19.9219 28.4297 20.6328C27.5391 21.3438 26.5312 21.9961 25.4062 22.5898C24.2812 23.1836 23.0508 23.6602 21.7148 24.0195C20.3789 24.3789 18.9609 24.5586 17.4609 24.5586ZM17.4609 22.6016C18.6484 22.6016 19.793 22.4531 20.8945 22.1562C21.9961 21.8594 23.0273 21.4688 23.9883 20.9844C24.9492 20.5 25.8203 19.9688 26.6016 19.3906C27.3906 18.8125 28.0664 18.2383 28.6289 17.668C29.1914 17.0977 29.625 16.5781 29.9297 16.1094C30.2344 15.6328 30.3867 15.2656 30.3867 15.0078C30.3867 14.7891 30.2344 14.457 29.9297 14.0117C29.625 13.5586 29.1914 13.043 28.6289 12.4648C28.0664 11.8867 27.3906 11.3047 26.6016 10.7188C25.8203 10.1328 24.9492 9.58984 23.9883 9.08984C23.0273 8.58203 21.9961 8.17578 20.8945 7.87109C19.793 7.56641 18.6484 7.41406 17.4609 7.41406C16.2578 7.41406 15.1055 7.56641 14.0039 7.87109C12.9023 8.17578 11.8672 8.58203 10.8984 9.08984C9.9375 9.58984 9.06641 10.1328 8.28516 10.7188C7.50391 11.3047 6.82812 11.8867 6.25781 12.4648C5.69531 13.043 5.26172 13.5586 4.95703 14.0117C4.66016 14.457 4.51172 14.7891 4.51172 15.0078C4.51172 15.2656 4.66016 15.6328 4.95703 16.1094C5.26172 16.5781 5.69531 17.0977 6.25781 17.668C6.82812 18.2383 7.50391 18.8125 8.28516 19.3906C9.06641 19.9688 9.9375 20.5 10.8984 20.9844C11.8672 21.4688 12.9023 21.8594 14.0039 22.1562C15.1055 22.4531 16.2578 22.6016 17.4609 22.6016ZM17.4609 21.0898C16.6094 21.0898 15.8125 20.9297 15.0703 20.6094C14.3359 20.2891 13.6875 19.8516 13.125 19.2969C12.5703 18.7344 12.1367 18.0859 11.8242 17.3516C11.5117 16.6172 11.3555 15.8359 11.3555 15.0078C11.3555 13.875 11.625 12.8516 12.1641 11.9375C12.7109 11.0156 13.4453 10.2852 14.3672 9.74609C15.2969 9.20703 16.3281 8.9375 17.4609 8.9375C18.5859 8.9375 19.6094 9.20703 20.5312 9.74609C21.4531 10.2852 22.1875 11.0156 22.7344 11.9375C23.2812 12.8516 23.5547 13.875 23.5547 15.0078C23.5547 15.8359 23.3984 16.6172 23.0859 17.3516C22.7734 18.0859 22.3359 18.7344 21.7734 19.2969C21.2188 19.8516 20.5703 20.2891 19.8281 20.6094C19.0938 20.9297 18.3047 21.0898 17.4609 21.0898ZM17.4609 16.9883C18.0078 16.9883 18.4766 16.7969 18.8672 16.4141C19.2656 16.0234 19.4648 15.5547 19.4648 15.0078C19.4648 14.4609 19.2656 13.9922 18.8672 13.6016C18.4766 13.2109 18.0078 13.0156 17.4609 13.0156C16.8984 13.0156 16.4219 13.2109 16.0312 13.6016C15.6406 13.9922 15.4453 14.4609 15.4453 15.0078C15.4453 15.5547 15.6406 16.0234 16.0312 16.4141C16.4219 16.7969 16.8984 16.9883 17.4609 16.9883Z"/>
</svg>
