<svg width="23" height="19" viewBox="0 0 23 19" fill="none" xmlns="http://www.w3.org/2000/svg">
<path d="M11.2969 15.8984C10.349 15.8984 9.44792 15.7812 8.59375 15.5469C7.74479 15.3125 6.95573 15.0026 6.22656 14.6172C5.5026 14.2266 4.84896 13.7995 4.26562 13.3359C3.6875 12.8724 3.19271 12.4089 2.78125 11.9453C2.36979 11.4766 2.05469 11.0443 1.83594 10.6484C1.61719 10.2474 1.50781 9.92708 1.50781 9.6875C1.50781 9.44271 1.61719 9.1224 1.83594 8.72656C2.05469 8.32552 2.36979 7.89323 2.78125 7.42969C3.19792 6.96094 3.69792 6.49479 4.28125 6.03125C4.86458 5.5625 5.51823 5.13542 6.24219 4.75C6.97135 4.36458 7.76042 4.05729 8.60938 3.82812C9.45833 3.59375 10.3542 3.47656 11.2969 3.47656C12.2448 3.47656 13.1432 3.59375 13.9922 3.82812C14.8464 4.05729 15.6354 4.36458 16.3594 4.75C17.0885 5.13542 17.7422 5.5625 18.3203 6.03125C18.9036 6.49479 19.401 6.96094 19.8125 7.42969C20.224 7.89323 20.5391 8.32552 20.7578 8.72656C20.9766 9.1224 21.0859 9.44271 21.0859 9.6875C21.0859 9.92708 20.9766 10.2474 20.7578 10.6484C20.5443 11.0443 20.2318 11.4766 19.8203 11.9453C19.4141 12.4089 18.9193 12.8724 18.3359 13.3359C17.7578 13.7995 17.1042 14.2266 16.375 14.6172C15.651 15.0026 14.862 15.3125 14.0078 15.5469C13.1536 15.7812 12.25 15.8984 11.2969 15.8984ZM11.2969 15.1172C12.151 15.1172 12.9635 15.013 13.7344 14.8047C14.5052 14.5911 15.2214 14.3099 15.8828 13.9609C16.5495 13.612 17.1484 13.2318 17.6797 12.8203C18.2161 12.4036 18.6745 11.9922 19.0547 11.5859C19.4349 11.1745 19.7266 10.8021 19.9297 10.4688C20.138 10.1302 20.2422 9.86979 20.2422 9.6875C20.2422 9.51562 20.138 9.26562 19.9297 8.9375C19.7266 8.60417 19.4349 8.23177 19.0547 7.82031C18.6745 7.40885 18.2161 6.99479 17.6797 6.57812C17.1484 6.15625 16.5495 5.77083 15.8828 5.42188C15.2214 5.06771 14.5052 4.78385 13.7344 4.57031C12.9635 4.35156 12.151 4.24219 11.2969 4.24219C10.4479 4.24219 9.63802 4.35156 8.86719 4.57031C8.09635 4.78385 7.3776 5.06771 6.71094 5.42188C6.04427 5.77083 5.44271 6.15625 4.90625 6.57812C4.375 6.99479 3.91667 7.40885 3.53125 7.82031C3.15104 8.23177 2.85938 8.60417 2.65625 8.9375C2.45312 9.26562 2.35156 9.51562 2.35156 9.6875C2.35156 9.86979 2.45312 10.1302 2.65625 10.4688C2.85938 10.8021 3.15104 11.1745 3.53125 11.5859C3.91667 11.9922 4.375 12.4036 4.90625 12.8203C5.44271 13.2318 6.04427 13.612 6.71094 13.9609C7.3776 14.3099 8.09635 14.5911 8.86719 14.8047C9.63802 15.013 10.4479 15.1172 11.2969 15.1172ZM11.2969 13.8047C10.724 13.8047 10.1875 13.6979 9.6875 13.4844C9.1875 13.2656 8.7474 12.9661 8.36719 12.5859C7.99219 12.2057 7.69792 11.7682 7.48438 11.2734C7.27083 10.7734 7.16406 10.2448 7.16406 9.6875C7.16406 8.92188 7.34896 8.22917 7.71875 7.60938C8.08854 6.98438 8.58594 6.48958 9.21094 6.125C9.83594 5.75521 10.5312 5.57031 11.2969 5.57031C12.0521 5.57031 12.7422 5.75521 13.3672 6.125C13.9974 6.48958 14.4974 6.98438 14.8672 7.60938C15.2422 8.22917 15.4297 8.92188 15.4297 9.6875C15.4297 10.2448 15.3229 10.7734 15.1094 11.2734C14.8958 11.7682 14.599 12.2057 14.2188 12.5859C13.8385 12.9661 13.3984 13.2656 12.8984 13.4844C12.3984 13.6979 11.8646 13.8047 11.2969 13.8047ZM11.3047 10.9609C11.6589 10.9609 11.9609 10.8359 12.2109 10.5859C12.4661 10.3359 12.5938 10.0365 12.5938 9.6875C12.5938 9.32812 12.4661 9.02604 12.2109 8.78125C11.9609 8.53125 11.6589 8.40625 11.3047 8.40625C10.9453 8.40625 10.638 8.53125 10.3828 8.78125C10.1276 9.02604 10 9.32812 10 9.6875C10 10.0365 10.1276 10.3359 10.3828 10.5859C10.638 10.8359 10.9453 10.9609 11.3047 10.9609Z" fill="#F9F8FF"/>
</svg>
