<svg width="15" height="16" viewBox="0 0 15 16" xmlns="http://www.w3.org/2000/svg">
<g clip-path="url(#clip0_984_2896)">
<path d="M1.85285 9.37639H5.46781C6.3756 9.37639 6.84068 8.93369 6.84068 7.97807V2.38281C6.84068 1.42719 6.3756 0.984497 5.46781 0.984497H1.85285C0.94507 0.984497 0.47998 1.42719 0.47998 2.38281V7.97807C0.47998 8.92623 0.94507 9.37639 1.85285 9.37639ZM1.86032 8.43623C1.55618 8.43623 1.39996 8.29272 1.39996 7.96315V2.37009C1.39996 2.05324 1.54346 1.90973 1.86032 1.90973H5.45509C5.77195 1.90973 5.91545 2.05324 5.91545 2.37009V7.96315C5.91545 8.28 5.77195 8.43623 5.45509 8.43623H1.86032ZM9.53219 5.33945H13.1471C14.0549 5.33945 14.52 4.89675 14.52 3.94113V2.38281C14.52 1.42719 14.0549 0.984497 13.1471 0.984497H9.53219C8.6244 0.984497 8.15931 1.42719 8.15931 2.38281V3.94113C8.15185 4.88929 8.6244 5.33945 9.53219 5.33945ZM9.55241 4.39929C9.23553 4.39929 9.09201 4.25578 9.09201 3.92621V2.37009C9.09201 2.05324 9.23553 1.90973 9.55241 1.90973H13.1471C13.464 1.90973 13.6075 2.05324 13.6075 2.37009V3.92621C13.6075 4.24306 13.464 4.39929 13.1471 4.39929H9.55241ZM1.85285 15.0425H5.46781C6.3756 15.0425 6.84068 14.5998 6.84068 13.6442V12.0859C6.84068 11.1303 6.3756 10.6875 5.46781 10.6875H1.85285C0.94507 10.6875 0.47998 11.1303 0.47998 12.0859V13.6442C0.47998 14.5998 0.94507 15.0425 1.85285 15.0425ZM1.86032 14.0971C1.55618 14.0971 1.39996 13.9536 1.39996 13.6367V12.0806C1.39996 11.7637 1.54346 11.6075 1.86032 11.6075H5.45509C5.77195 11.6075 5.91545 11.751 5.91545 12.0806V13.6367C5.91545 13.9536 5.77195 14.0971 5.45509 14.0971H1.86032ZM9.53219 15.0425H13.1471C14.0549 15.0425 14.52 14.5998 14.52 13.6442V8.04893C14.52 7.09331 14.0549 6.65062 13.1471 6.65062H9.53219C8.6244 6.65062 8.15931 7.09331 8.15931 8.04893V13.6442C8.15185 14.5998 8.6244 15.0425 9.53219 15.0425ZM9.55241 14.0971C9.23553 14.0971 9.09201 13.9536 9.09201 13.6367V8.04368C9.09201 7.72682 9.23553 7.5706 9.55241 7.5706H13.1471C13.464 7.5706 13.6075 7.7141 13.6075 8.04368V13.6367C13.6075 13.9536 13.464 14.0971 13.1471 14.0971H9.55241Z" fill-opacity="0.85"/>
</g>
<defs>
<clipPath id="clip0_984_2896">
<rect width="14.04" height="14.0848" transform="translate(0.47998 0.957642)"/>
</clipPath>
</defs>
</svg>
