<svg width="33" height="29" viewBox="0 0 33 29" xmlns="http://www.w3.org/2000/svg">
<path d="M28.4492 21.7344C28.4414 22.5312 28.2305 23.1719 27.8164 23.6562C27.4102 24.1406 26.7383 24.3828 25.8008 24.3828H6.30078C5.52734 24.3828 4.96484 24.1797 4.61328 23.7734C4.26172 23.375 4.03906 22.7266 3.94531 21.8281L8.09375 17.9844C8.32031 17.7734 8.54688 17.6133 8.77344 17.5039C9.00781 17.3945 9.25781 17.3398 9.52344 17.3398C9.80469 17.3398 10.0664 17.3984 10.3086 17.5156C10.5508 17.625 10.7891 17.7891 11.0234 18.0078L13.1328 19.9531L18.1836 15.4297C18.4492 15.1875 18.7188 15.0117 18.9922 14.9023C19.2656 14.7852 19.5664 14.7266 19.8945 14.7266C20.2227 14.7266 20.5273 14.7891 20.8086 14.9141C21.0977 15.0312 21.375 15.2109 21.6406 15.4531L28.4492 21.7344ZM11.3867 15.2188C10.9023 15.2188 10.4609 15.1016 10.0625 14.8672C9.67188 14.6328 9.35938 14.3203 9.125 13.9297C8.89062 13.5312 8.77344 13.0898 8.77344 12.6055C8.77344 12.1367 8.89062 11.7031 9.125 11.3047C9.35938 10.9062 9.67188 10.5898 10.0625 10.3555C10.4609 10.1133 10.9023 9.99219 11.3867 9.99219C11.8633 9.99219 12.2969 10.1133 12.6875 10.3555C13.0781 10.5898 13.3906 10.9062 13.625 11.3047C13.8594 11.7031 13.9766 12.1367 13.9766 12.6055C13.9766 13.0898 13.8594 13.5312 13.625 13.9297C13.3906 14.3203 13.0781 14.6328 12.6875 14.8672C12.2969 15.1016 11.8633 15.2188 11.3867 15.2188ZM6.45312 24.9219C5.42188 24.9219 4.64062 24.6602 4.10938 24.1367C3.58594 23.6133 3.32422 22.8398 3.32422 21.8164V8.22266C3.32422 7.19922 3.58594 6.42578 4.10938 5.90234C4.64062 5.37109 5.42188 5.10547 6.45312 5.10547H25.9766C27.0078 5.10547 27.7852 5.37109 28.3086 5.90234C28.8398 6.43359 29.1055 7.20703 29.1055 8.22266V21.8164C29.1055 22.832 28.8398 23.6016 28.3086 24.125C27.7852 24.6562 27.0078 24.9219 25.9766 24.9219H6.45312ZM6.47656 23.8086H25.9531C26.6016 23.8086 27.1016 23.6328 27.4531 23.2812C27.8125 22.9375 27.9922 22.4297 27.9922 21.7578V8.28125C27.9922 7.60156 27.8125 7.08984 27.4531 6.74609C27.1016 6.39453 26.6016 6.21875 25.9531 6.21875H6.47656C5.8125 6.21875 5.30469 6.39453 4.95312 6.74609C4.60938 7.08984 4.4375 7.60156 4.4375 8.28125V21.7578C4.4375 22.4297 4.60938 22.9375 4.95312 23.2812C5.30469 23.6328 5.8125 23.8086 6.47656 23.8086Z"/>
</svg>
