<svg width="25" height="29" viewBox="0 0 25 29" xmlns="http://www.w3.org/2000/svg">
<path d="M7.04297 25.6719C6.21484 25.6719 5.58594 25.4492 5.15625 25.0039C4.73438 24.5586 4.52344 23.8867 4.52344 22.9883V15.2305C4.52344 14.3477 4.73438 13.6836 5.15625 13.2383C5.58594 12.793 6.21484 12.5703 7.04297 12.5703H17.3203C18.1562 12.5703 18.7852 12.793 19.207 13.2383C19.6367 13.6836 19.8516 14.3477 19.8516 15.2305V22.9883C19.8516 23.8867 19.6367 24.5586 19.207 25.0039C18.7852 25.4492 18.1562 25.6719 17.3203 25.6719H7.04297ZM7.25391 23.832H17.1328C17.375 23.832 17.5586 23.7617 17.6836 23.6211C17.8086 23.4805 17.8711 23.2734 17.8711 23V15.2188C17.8711 14.9531 17.8086 14.7539 17.6836 14.6211C17.5586 14.4805 17.375 14.4102 17.1328 14.4102H7.25391C7.01953 14.4102 6.83594 14.4805 6.70312 14.6211C6.57812 14.7539 6.51562 14.9531 6.51562 15.2188V23C6.51562 23.2734 6.57812 23.4805 6.70312 23.6211C6.83594 23.7617 7.01953 23.832 7.25391 23.832ZM6.51562 13.4609V9.94531C6.51562 8.57031 6.78125 7.42578 7.3125 6.51172C7.84375 5.58984 8.54297 4.89844 9.41016 4.4375C10.2773 3.97656 11.2031 3.74609 12.1875 3.74609C13.1797 3.74609 14.1055 3.97656 14.9648 4.4375C15.832 4.89844 16.5312 5.58984 17.0625 6.51172C17.6016 7.42578 17.8711 8.57031 17.8711 9.94531V13.4609H15.9492V9.73438C15.9492 8.83594 15.7734 8.07812 15.4219 7.46094C15.0781 6.84375 14.6211 6.37891 14.0508 6.06641C13.4883 5.75391 12.8672 5.59766 12.1875 5.59766C11.5156 5.59766 10.8945 5.75391 10.3242 6.06641C9.75391 6.37891 9.29688 6.84375 8.95312 7.46094C8.60938 8.07812 8.4375 8.83594 8.4375 9.73438V13.4609H6.51562Z"/>
</svg>
