<svg width="15" height="17" viewBox="0 0 15 17" fill="none" xmlns="http://www.w3.org/2000/svg">
<path d="M4.99023 3.82617C4.99023 3.45247 5.0791 3.11296 5.25684 2.80762C5.43913 2.50228 5.68294 2.25846 5.98828 2.07617C6.29362 1.89388 6.63314 1.80273 7.00684 1.80273C7.38053 1.80273 7.72005 1.89388 8.02539 2.07617C8.33073 2.25846 8.57227 2.50228 8.75 2.80762C8.93229 3.11296 9.02344 3.45247 9.02344 3.82617C9.02344 4.15885 8.95052 4.46647 8.80469 4.74902C8.65885 5.02702 8.46061 5.25944 8.20996 5.44629C7.95931 5.63314 7.67676 5.75391 7.3623 5.80859V11.1406C7.3623 11.5417 7.34408 11.8789 7.30762 12.1523C7.27116 12.4212 7.22331 12.624 7.16406 12.7607C7.10938 12.8975 7.05697 12.9658 7.00684 12.9658C6.95215 12.9658 6.89746 12.8975 6.84277 12.7607C6.78809 12.6195 6.74023 12.4144 6.69922 12.1455C6.66276 11.8766 6.64453 11.5417 6.64453 11.1406V5.80859C6.33008 5.75391 6.04753 5.63314 5.79688 5.44629C5.54622 5.25944 5.34798 5.02702 5.20215 4.74902C5.06087 4.46647 4.99023 4.15885 4.99023 3.82617ZM6.3916 3.89453C6.57845 3.89453 6.74023 3.82617 6.87695 3.68945C7.01367 3.54818 7.08203 3.38411 7.08203 3.19727C7.08203 3.01497 7.01367 2.85547 6.87695 2.71875C6.74023 2.58203 6.57845 2.51367 6.3916 2.51367C6.20931 2.51367 6.04753 2.58203 5.90625 2.71875C5.76953 2.85547 5.70117 3.01497 5.70117 3.19727C5.70117 3.38411 5.76953 3.54818 5.90625 3.68945C6.04753 3.82617 6.20931 3.89453 6.3916 3.89453ZM7.00684 15.0576C6.12272 15.0576 5.32064 14.9915 4.60059 14.8594C3.88509 14.7318 3.26986 14.5518 2.75488 14.3193C2.23991 14.0869 1.84342 13.8158 1.56543 13.5059C1.29199 13.2005 1.15527 12.8724 1.15527 12.5215C1.15527 12.1615 1.29199 11.8356 1.56543 11.5439C1.84342 11.2523 2.20345 11.0039 2.64551 10.7988C3.08757 10.5892 3.56152 10.4274 4.06738 10.3135C4.57324 10.1995 5.05632 10.138 5.5166 10.1289V10.7305C5.14746 10.7396 4.75326 10.7874 4.33398 10.874C3.91927 10.9561 3.52962 11.0745 3.16504 11.2295C2.80046 11.3799 2.50195 11.5599 2.26953 11.7695C2.04167 11.9746 1.92773 12.2002 1.92773 12.4463C1.92773 12.8428 2.15104 13.1891 2.59766 13.4854C3.04427 13.7816 3.65039 14.0117 4.41602 14.1758C5.18164 14.3398 6.04525 14.4219 7.00684 14.4219C7.96387 14.4219 8.8252 14.3376 9.59082 14.1689C10.361 14.0049 10.9694 13.7747 11.416 13.4785C11.8626 13.1823 12.0859 12.8382 12.0859 12.4463C12.0859 12.2002 11.9697 11.9746 11.7373 11.7695C11.5094 11.5599 11.2132 11.3799 10.8486 11.2295C10.484 11.0745 10.0944 10.9561 9.67969 10.874C9.26497 10.7874 8.87077 10.7396 8.49707 10.7305V10.1289C8.95736 10.138 9.44043 10.1995 9.94629 10.3135C10.4567 10.4274 10.9307 10.5892 11.3682 10.7988C11.8102 11.0039 12.168 11.2523 12.4414 11.5439C12.7194 11.8356 12.8584 12.1615 12.8584 12.5215C12.8584 12.8724 12.7194 13.2005 12.4414 13.5059C12.168 13.8158 11.7738 14.0869 11.2588 14.3193C10.7438 14.5518 10.1263 14.7318 9.40625 14.8594C8.69076 14.9915 7.89095 15.0576 7.00684 15.0576Z" fill="#F9F8FF"/>
</svg>
