<svg width="29" height="29" viewBox="0 0 29 29" xmlns="http://www.w3.org/2000/svg">
<path d="M4.19531 25.625C3.76562 25.625 3.42969 25.5039 3.1875 25.2617C2.94531 25.0195 2.82422 24.6758 2.82422 24.2305V9.32422C2.82422 8.92578 2.90625 8.58594 3.07031 8.30469C3.24219 8.01562 3.50391 7.76953 3.85547 7.56641L9.48047 4.37891C9.84766 4.16016 10.2539 4.05078 10.6992 4.05078C11.1445 4.05078 11.5547 4.16016 11.9297 4.37891L17.8477 7.98828L23.5898 4.78906C23.793 4.67969 23.9766 4.59766 24.1406 4.54297C24.3047 4.48828 24.4648 4.46094 24.6211 4.46094C25.0586 4.46094 25.3984 4.58203 25.6406 4.82422C25.8828 5.06641 26.0039 5.40625 26.0039 5.84375V20.75C26.0039 21.1484 25.918 21.4922 25.7461 21.7812C25.582 22.0703 25.3242 22.3164 24.9727 22.5195L19.3125 25.7188C18.9375 25.9297 18.5312 26.0352 18.0938 26.0352C17.6406 26.0352 17.1953 25.918 16.7578 25.6836L10.7461 22.3086L5.22656 25.2969C5.03125 25.3984 4.85156 25.4766 4.6875 25.5312C4.52344 25.5938 4.35938 25.625 4.19531 25.625ZM9.89062 20.4453V6.42969C9.82812 6.46875 9.76562 6.50391 9.70312 6.53516C9.64844 6.56641 9.58594 6.60156 9.51562 6.64062L5.13281 9.18359C5 9.26172 4.90234 9.35547 4.83984 9.46484C4.78516 9.56641 4.75781 9.6875 4.75781 9.82812V22.918C4.75781 23.0586 4.8125 23.1289 4.92188 23.1289C4.96875 23.1289 5.03125 23.1094 5.10938 23.0703L9.89062 20.4453ZM11.8359 20.5625L16.5234 23.1992C16.6016 23.2383 16.6797 23.2773 16.7578 23.3164C16.8359 23.3633 16.9141 23.4062 16.9922 23.4453V9.78125L12.1875 6.875C12.1328 6.83594 12.0742 6.80078 12.0117 6.76953C11.9492 6.73828 11.8906 6.70703 11.8359 6.67578V20.5625ZM18.9258 23.6211C19.0117 23.582 19.0977 23.5391 19.1836 23.4922C19.2695 23.4453 19.3555 23.3984 19.4414 23.3516L23.6836 20.8789C23.8242 20.8008 23.9219 20.7109 23.9766 20.6094C24.0312 20.5078 24.0586 20.3828 24.0586 20.2344V7.16797C24.0586 7.10547 24.043 7.05469 24.0117 7.01562C23.9883 6.97656 23.9492 6.95703 23.8945 6.95703C23.8477 6.95703 23.7891 6.98047 23.7188 7.02734L18.9258 9.62891V23.6211Z"/>
</svg>
