<svg width="26" height="29" viewBox="0 0 26 29" xmlns="http://www.w3.org/2000/svg">
<path d="M5.60156 25.3086C3.75 25.3086 2.82422 24.6953 2.82422 23.4688C2.82422 22.7266 3.04688 21.9453 3.49219 21.125C3.94531 20.2969 4.59375 19.5234 5.4375 18.8047C6.28125 18.0781 7.30078 17.4883 8.49609 17.0352C9.69922 16.582 11.0508 16.3555 12.5508 16.3555C14.043 16.3555 15.3867 16.582 16.582 17.0352C17.7773 17.4883 18.7969 18.0781 19.6406 18.8047C20.4922 19.5234 21.1406 20.2969 21.5859 21.125C22.0391 21.9453 22.2656 22.7266 22.2656 23.4688C22.2656 24.6953 21.3359 25.3086 19.4766 25.3086H5.60156ZM5.16797 23.5039H19.9219C20.0625 23.5039 20.1602 23.4805 20.2148 23.4336C20.2773 23.3867 20.3086 23.3125 20.3086 23.2109C20.3086 22.7656 20.1367 22.2578 19.793 21.6875C19.4492 21.1172 18.9453 20.5625 18.2812 20.0234C17.625 19.4844 16.8164 19.0391 15.8555 18.6875C14.8945 18.3359 13.793 18.1602 12.5508 18.1602C11.3008 18.1602 10.1914 18.3359 9.22266 18.6875C8.26172 19.0391 7.44922 19.4844 6.78516 20.0234C6.12891 20.5625 5.62891 21.1172 5.28516 21.6875C4.94922 22.2578 4.78125 22.7656 4.78125 23.2109C4.78125 23.3125 4.8125 23.3867 4.875 23.4336C4.9375 23.4805 5.03516 23.5039 5.16797 23.5039ZM12.5508 15.0195C11.668 15.0195 10.8594 14.7852 10.125 14.3164C9.39844 13.8477 8.81641 13.2188 8.37891 12.4297C7.94922 11.6406 7.73438 10.7656 7.73438 9.80469C7.73438 8.85938 7.94922 8 8.37891 7.22656C8.81641 6.45312 9.39844 5.83594 10.125 5.375C10.8594 4.91406 11.668 4.68359 12.5508 4.68359C13.4336 4.68359 14.2422 4.91016 14.9766 5.36328C15.7109 5.81641 16.293 6.42969 16.7227 7.20312C17.1523 7.97656 17.3672 8.83594 17.3672 9.78125C17.3672 10.7422 17.1484 11.6211 16.7109 12.418C16.2812 13.207 15.6992 13.8398 14.9648 14.3164C14.2383 14.7852 13.4336 15.0195 12.5508 15.0195ZM12.5508 13.2266C13.082 13.2266 13.5664 13.0742 14.0039 12.7695C14.4414 12.4648 14.793 12.0508 15.0586 11.5273C15.3242 11.0039 15.457 10.4219 15.457 9.78125C15.457 9.15625 15.3242 8.59766 15.0586 8.10547C14.8008 7.60547 14.4531 7.21094 14.0156 6.92188C13.5781 6.63281 13.0898 6.48828 12.5508 6.48828C12.0195 6.48828 11.5312 6.63672 11.0859 6.93359C10.6406 7.22266 10.2852 7.61719 10.0195 8.11719C9.76172 8.61719 9.63281 9.17969 9.63281 9.80469C9.63281 10.4453 9.76562 11.0234 10.0312 11.5391C10.2969 12.0547 10.6523 12.4648 11.0977 12.7695C11.543 13.0742 12.0273 13.2266 12.5508 13.2266Z"/>
</svg>
