<svg width="32" height="29" viewBox="0 0 32 29" xmlns="http://www.w3.org/2000/svg">
<path d="M27.8906 21.1367C27.9062 22.2148 27.6523 23.0312 27.1289 23.5859C26.6055 24.1484 25.8125 24.4297 24.75 24.4297H6.49219C5.61719 24.4297 4.95312 24.168 4.5 23.6445C4.05469 23.1289 3.81641 22.3633 3.78516 21.3477L8.00391 17.5742C8.23047 17.3633 8.46094 17.207 8.69531 17.1055C8.92969 17.0039 9.17188 16.9531 9.42188 16.9531C9.67969 16.9531 9.93359 17.0078 10.1836 17.1172C10.4414 17.2266 10.6875 17.3828 10.9219 17.5859L12.9609 19.4375L17.9766 14.9609C18.2266 14.7344 18.4883 14.5703 18.7617 14.4688C19.043 14.3594 19.3359 14.3047 19.6406 14.3047C19.9375 14.3047 20.2266 14.3633 20.5078 14.4805C20.7969 14.5898 21.0625 14.7539 21.3047 14.9727L27.8906 21.1367ZM11.2617 15.1602C10.7773 15.1602 10.3359 15.043 9.9375 14.8086C9.53906 14.5664 9.21875 14.2461 8.97656 13.8477C8.74219 13.4492 8.625 13.0039 8.625 12.5117C8.625 12.043 8.74219 11.6094 8.97656 11.2109C9.21875 10.8047 9.53906 10.4805 9.9375 10.2383C10.3359 9.99609 10.7773 9.875 11.2617 9.875C11.7461 9.875 12.1836 9.99609 12.5742 10.2383C12.9727 10.4805 13.2891 10.8047 13.5234 11.2109C13.7656 11.6094 13.8867 12.043 13.8867 12.5117C13.8867 13.0039 13.7656 13.4492 13.5234 13.8477C13.2891 14.2461 12.9727 14.5664 12.5742 14.8086C12.1836 15.043 11.7461 15.1602 11.2617 15.1602ZM6.38672 25.2852C5.21484 25.2852 4.32812 24.9883 3.72656 24.3945C3.125 23.8086 2.82422 22.9336 2.82422 21.7695V8.24609C2.82422 7.08203 3.125 6.20703 3.72656 5.62109C4.32812 5.02734 5.21484 4.73047 6.38672 4.73047H25.4648C26.6523 4.73047 27.543 5.02734 28.1367 5.62109C28.7305 6.20703 29.0273 7.08203 29.0273 8.24609V21.7695C29.0273 22.9336 28.7305 23.8086 28.1367 24.3945C27.543 24.9883 26.6523 25.2852 25.4648 25.2852H6.38672ZM6.46875 23.293H25.3828C25.9141 23.293 26.3242 23.1523 26.6133 22.8711C26.9023 22.5898 27.0469 22.1758 27.0469 21.6289V8.38672C27.0469 7.83203 26.9023 7.41406 26.6133 7.13281C26.3242 6.85156 25.9141 6.71094 25.3828 6.71094H6.46875C5.9375 6.71094 5.53125 6.85156 5.25 7.13281C4.96875 7.41406 4.82812 7.83203 4.82812 8.38672V21.6289C4.82812 22.1758 4.96875 22.5898 5.25 22.8711C5.53125 23.1523 5.9375 23.293 6.46875 23.293Z"/>
</svg>
