<svg width="14" height="18" viewBox="0 0 14 18" xmlns="http://www.w3.org/2000/svg">
<path fill-rule="evenodd" clip-rule="evenodd" d="M7.00011 8.533C7.72185 8.533 8.30693 7.94792 8.30693 7.22619C8.30693 6.50445 7.72185 5.91937 7.00011 5.91937C6.27838 5.91937 5.69329 6.50445 5.69329 7.22619C5.69329 7.94792 6.27838 8.533 7.00011 8.533ZM9.61375 7.22619C9.61375 8.66966 8.44358 9.83982 7.00011 9.83982C5.55664 9.83982 4.38647 8.66966 4.38647 7.22619C4.38647 5.78271 5.55664 4.61255 7.00011 4.61255C8.44358 4.61255 9.61375 5.78271 9.61375 7.22619Z" />
<path fill-rule="evenodd" clip-rule="evenodd" d="M11.3661 10.9238C11.3903 10.8862 11.4167 10.8495 11.4451 10.8141C12.2266 9.83918 12.6932 8.6041 12.6932 7.25647C12.6932 4.11221 10.1443 1.56329 7 1.56329C3.85574 1.56329 1.30682 4.11221 1.30682 7.25647C1.30682 8.604 1.77335 9.83898 2.55476 10.8139C2.56604 10.8279 2.57719 10.8421 2.58797 10.8565L1.54097 11.6385L1.5353 11.6315C0.574629 10.4331 0 8.91188 0 7.25647C0 3.39048 3.13401 0.25647 7 0.25647C10.866 0.25647 14 3.39048 14 7.25647C14 8.44236 13.7051 9.55938 13.1846 10.5382C12.9796 10.9238 12.7396 11.2879 12.4688 11.6264L12.4662 11.6296L12.4647 11.6315H12.4688L12.4672 11.6335C12.4672 11.6335 12.4657 11.6355 12.4647 11.6369C12.427 11.6872 12.1293 12.0851 11.6804 12.6767C10.8084 13.826 9.36597 15.7065 8.15129 17.1922C7.55002 17.9277 6.4502 17.9274 5.84929 17.1916C3.97065 14.8915 1.54097 11.6385 1.54097 11.6385L2.58797 10.8565L2.69436 10.9985C2.76385 11.0912 2.86543 11.2263 2.99327 11.3958C3.24899 11.7348 3.60956 12.2109 4.02849 12.7584C4.86819 13.8558 5.93534 15.2311 6.86142 16.365C6.90623 16.4199 6.95544 16.4368 7.00048 16.4368C7.04552 16.4368 7.09473 16.4199 7.13956 16.3651C8.06858 15.2287 9.13795 13.8516 9.97916 12.7529C10.3988 12.2048 10.76 11.7283 11.0161 11.3889C11.1441 11.2193 11.2458 11.084 11.3154 10.9913L11.3661 10.9238Z"/>
</svg>
