<svg width="25" height="29" viewBox="0 0 25 29" xmlns="http://www.w3.org/2000/svg">
<path d="M2.82422 14.9961C2.82422 14.6836 2.93359 14.418 3.15234 14.1992C3.37891 13.9805 3.64453 13.8711 3.94922 13.8711H10.9219V6.89844C10.9219 6.60156 11.0312 6.33984 11.25 6.11328C11.4688 5.88672 11.7344 5.77344 12.0469 5.77344C12.3594 5.77344 12.6211 5.88672 12.832 6.11328C13.0508 6.33984 13.1602 6.60156 13.1602 6.89844V13.8711H20.1445C20.4414 13.8711 20.6992 13.9805 20.918 14.1992C21.1445 14.418 21.2578 14.6836 21.2578 14.9961C21.2578 15.3086 21.1445 15.5742 20.918 15.793C20.6992 16.0117 20.4414 16.1211 20.1445 16.1211H13.1602V23.0938C13.1602 23.3984 13.0508 23.6602 12.832 23.8789C12.6211 24.0977 12.3594 24.207 12.0469 24.207C11.7344 24.207 11.4688 24.0977 11.25 23.8789C11.0312 23.6602 10.9219 23.3984 10.9219 23.0938V16.1211H3.94922C3.64453 16.1211 3.37891 16.0117 3.15234 15.793C2.93359 15.5742 2.82422 15.3086 2.82422 14.9961Z"/>
</svg>
