<svg width="27" height="29" viewBox="0 0 27 29" xmlns="http://www.w3.org/2000/svg">
<path d="M13.3711 26.3867C11.8086 26.3867 10.3398 26.0859 8.96484 25.4844C7.59766 24.8906 6.39062 24.0703 5.34375 23.0234C4.29688 21.9766 3.47266 20.7695 2.87109 19.4023C2.27734 18.0273 1.98047 16.5586 1.98047 14.9961C1.98047 13.4414 2.27734 11.9766 2.87109 10.6016C3.46484 9.22656 4.28516 8.01562 5.33203 6.96875C6.38672 5.92188 7.59766 5.10156 8.96484 4.50781C10.3398 3.91406 11.8047 3.61719 13.3594 3.61719C14.9141 3.61719 16.3789 3.91406 17.7539 4.50781C19.1289 5.10156 20.3398 5.92188 21.3867 6.96875C22.4336 8.01562 23.2539 9.22656 23.8477 10.6016C24.4492 11.9766 24.75 13.4414 24.75 14.9961C24.75 16.5586 24.4531 18.0273 23.8594 19.4023C23.2656 20.7695 22.4453 21.9766 21.3984 23.0234C20.3516 24.0703 19.1406 24.8906 17.7656 25.4844C16.3906 26.0859 14.9258 26.3867 13.3711 26.3867ZM7.94531 15.0078C7.94531 15.3047 8.04297 15.5508 8.23828 15.7461C8.43359 15.9336 8.68359 16.0273 8.98828 16.0273H12.3398V19.3789C12.3398 19.6758 12.4336 19.9219 12.6211 20.1172C12.8086 20.3125 13.0508 20.4102 13.3477 20.4102C13.6602 20.4102 13.9102 20.3125 14.0977 20.1172C14.293 19.9219 14.3906 19.6758 14.3906 19.3789V16.0273H17.7539C18.0508 16.0273 18.2969 15.9336 18.4922 15.7461C18.6875 15.5508 18.7852 15.3047 18.7852 15.0078C18.7852 14.7031 18.6875 14.4531 18.4922 14.2578C18.3047 14.0625 18.0586 13.9648 17.7539 13.9648H14.3906V10.625C14.3906 10.3125 14.293 10.0625 14.0977 9.875C13.9102 9.67969 13.6602 9.58203 13.3477 9.58203C13.0508 9.58203 12.8086 9.67969 12.6211 9.875C12.4336 10.0703 12.3398 10.3203 12.3398 10.625V13.9648H8.98828C8.68359 13.9648 8.43359 14.0625 8.23828 14.2578C8.04297 14.4531 7.94531 14.7031 7.94531 15.0078Z"/>
</svg>
