<svg width="27" height="29" viewBox="0 0 27 29" xmlns="http://www.w3.org/2000/svg">
<path d="M2.55469 12.9453C2.55469 11.7109 2.78516 10.5547 3.24609 9.47656C3.70703 8.39062 4.34766 7.44141 5.16797 6.62891C5.98828 5.80859 6.9375 5.16797 8.01562 4.70703C9.09375 4.23828 10.25 4.00391 11.4844 4.00391C12.7266 4.00391 13.8867 4.23828 14.9648 4.70703C16.043 5.16797 16.9922 5.80859 17.8125 6.62891C18.6328 7.44141 19.2734 8.39062 19.7344 9.47656C20.1953 10.5547 20.4258 11.7109 20.4258 12.9453C20.4258 13.9297 20.2734 14.8711 19.9688 15.7695C19.6641 16.6602 19.2344 17.4727 18.6797 18.207L23.918 23.457C24.0508 23.6055 24.1523 23.7695 24.2227 23.9492C24.293 24.1289 24.3281 24.3125 24.3281 24.5C24.3281 24.7891 24.2656 25.043 24.1406 25.2617C24.0156 25.4883 23.8438 25.6641 23.625 25.7891C23.4062 25.9219 23.1562 25.9883 22.875 25.9883C22.6797 25.9883 22.4883 25.9531 22.3008 25.8828C22.1133 25.8203 21.9492 25.7188 21.8086 25.5781L16.5352 20.293C15.8164 20.793 15.0312 21.1836 14.1797 21.4648C13.3281 21.7461 12.4297 21.8867 11.4844 21.8867C10.25 21.8867 9.09375 21.6562 8.01562 21.1953C6.9375 20.7344 5.98828 20.0938 5.16797 19.2734C4.34766 18.4531 3.70703 17.5039 3.24609 16.4258C2.78516 15.3398 2.55469 14.1797 2.55469 12.9453ZM4.6875 12.9453C4.6875 13.8828 4.86328 14.7656 5.21484 15.5938C5.56641 16.4141 6.05469 17.1367 6.67969 17.7617C7.30469 18.3789 8.02734 18.8633 8.84766 19.2148C9.66797 19.5664 10.5469 19.7422 11.4844 19.7422C12.4219 19.7422 13.3008 19.5664 14.1211 19.2148C14.9492 18.8633 15.6719 18.3789 16.2891 17.7617C16.9141 17.1367 17.4023 16.4141 17.7539 15.5938C18.1055 14.7656 18.2812 13.8828 18.2812 12.9453C18.2812 12.0078 18.1055 11.1289 17.7539 10.3086C17.4023 9.48047 16.9141 8.75781 16.2891 8.14062C15.6719 7.51563 14.9492 7.02734 14.1211 6.67578C13.3008 6.32422 12.4219 6.14844 11.4844 6.14844C10.5469 6.14844 9.66797 6.32422 8.84766 6.67578C8.02734 7.02734 7.30469 7.51563 6.67969 8.14062C6.05469 8.75781 5.56641 9.48047 5.21484 10.3086C4.86328 11.1289 4.6875 12.0078 4.6875 12.9453Z"/>
</svg>
