<svg width="26" height="29" viewBox="0 0 26 29" xmlns="http://www.w3.org/2000/svg">
<path d="M9.25781 22.7539C9.03906 22.7539 8.86328 22.6914 8.73047 22.5664C8.60547 22.4414 8.53906 22.2734 8.53125 22.0625L8.19141 10.3438C8.19141 10.1328 8.25391 9.96484 8.37891 9.83984C8.51172 9.70703 8.69141 9.64062 8.91797 9.64062C9.12891 9.64062 9.30078 9.70312 9.43359 9.82812C9.56641 9.95312 9.63672 10.1211 9.64453 10.332L9.98438 22.0625C9.99219 22.2656 9.92578 22.4336 9.78516 22.5664C9.65234 22.6914 9.47656 22.7539 9.25781 22.7539ZM12.5391 22.7539C12.3203 22.7539 12.1406 22.6914 12 22.5664C11.8594 22.4414 11.7891 22.2734 11.7891 22.0625V10.332C11.7891 10.1289 11.8594 9.96484 12 9.83984C12.1406 9.70703 12.3203 9.64062 12.5391 9.64062C12.7578 9.64062 12.9336 9.70703 13.0664 9.83984C13.207 9.96484 13.2773 10.1289 13.2773 10.332V22.0625C13.2773 22.2734 13.207 22.4414 13.0664 22.5664C12.9336 22.6914 12.7578 22.7539 12.5391 22.7539ZM15.8086 22.7539C15.5898 22.7539 15.4141 22.6914 15.2812 22.5664C15.1484 22.4336 15.082 22.2656 15.082 22.0625L15.4219 10.3438C15.4297 10.125 15.5 9.95312 15.6328 9.82812C15.7656 9.70312 15.9375 9.64062 16.1484 9.64062C16.375 9.64062 16.5508 9.70703 16.6758 9.83984C16.8086 9.96484 16.875 10.1328 16.875 10.3438L16.5352 22.0742C16.5273 22.2773 16.457 22.4414 16.3242 22.5664C16.1992 22.6914 16.0273 22.7539 15.8086 22.7539ZM7.58203 6.65234V4.21484C7.58203 3.38672 7.83203 2.73828 8.33203 2.26953C8.83984 1.80078 9.53516 1.56641 10.418 1.56641H14.625C15.5156 1.56641 16.2109 1.80078 16.7109 2.26953C17.2188 2.73828 17.4727 3.38672 17.4727 4.21484V6.65234H15.5508V4.30859C15.5508 4.01172 15.4531 3.77344 15.2578 3.59375C15.0703 3.41406 14.8164 3.32422 14.4961 3.32422H10.5469C10.2344 3.32422 9.98047 3.41406 9.78516 3.59375C9.58984 3.77344 9.49219 4.01172 9.49219 4.30859V6.65234H7.58203ZM2.60156 7.70703C2.35938 7.70703 2.14844 7.62109 1.96875 7.44922C1.78906 7.26953 1.69922 7.04688 1.69922 6.78125C1.69922 6.53125 1.78906 6.32031 1.96875 6.14844C2.14844 5.96875 2.35938 5.87891 2.60156 5.87891H22.4648C22.7148 5.87891 22.9258 5.96875 23.0977 6.14844C23.2773 6.32031 23.3672 6.53125 23.3672 6.78125C23.3672 7.04688 23.2773 7.26953 23.0977 7.44922C22.9258 7.62109 22.7148 7.70703 22.4648 7.70703H2.60156ZM7.44141 26.4336C6.62109 26.4336 5.95703 26.1914 5.44922 25.707C4.94922 25.2305 4.67578 24.5781 4.62891 23.75L3.86719 7.49609H5.75391L6.52734 23.4922C6.54297 23.8125 6.65234 24.0742 6.85547 24.2773C7.06641 24.4883 7.32812 24.5938 7.64062 24.5938H17.4141C17.7344 24.5938 17.9961 24.4922 18.1992 24.2891C18.4102 24.0859 18.5234 23.8203 18.5391 23.4922L19.2773 7.49609H21.2109L20.4258 23.7383C20.3867 24.5664 20.1133 25.2227 19.6055 25.707C19.1055 26.1914 18.4453 26.4336 17.625 26.4336H7.44141Z"/>
</svg>
