<svg width="25" height="30" viewBox="0 0 25 30" xmlns="http://www.w3.org/2000/svg">
<path d="M5.01562 25.5156C3.55469 25.5156 2.82422 25 2.82422 23.9688C2.82422 23.25 3.03906 22.4922 3.46875 21.6953C3.90625 20.8906 4.53516 20.1367 5.35547 19.4336C6.17578 18.7227 7.16797 18.1445 8.33203 17.6992C9.49609 17.2539 10.8086 17.0312 12.2695 17.0312C13.7305 17.0312 15.043 17.2539 16.207 17.6992C17.3711 18.1445 18.3633 18.7227 19.1836 19.4336C20.0039 20.1367 20.6289 20.8906 21.0586 21.6953C21.4961 22.4922 21.7148 23.25 21.7148 23.9688C21.7148 25 20.9844 25.5156 19.5234 25.5156H5.01562ZM4.78125 24.4492H19.7578C20.0781 24.4492 20.2969 24.4062 20.4141 24.3203C20.5391 24.2344 20.6016 24.0859 20.6016 23.875C20.6016 23.3047 20.4141 22.6875 20.0391 22.0234C19.6719 21.3594 19.1289 20.7305 18.4102 20.1367C17.6992 19.5352 16.8281 19.0469 15.7969 18.6719C14.7656 18.2891 13.5898 18.0977 12.2695 18.0977C10.9492 18.0977 9.77344 18.2891 8.74219 18.6719C7.71094 19.0469 6.83594 19.5352 6.11719 20.1367C5.40625 20.7305 4.86328 21.3594 4.48828 22.0234C4.12109 22.6875 3.9375 23.3047 3.9375 23.875C3.9375 24.0859 3.99609 24.2344 4.11328 24.3203C4.23828 24.4062 4.46094 24.4492 4.78125 24.4492ZM12.293 15.4492C11.4414 15.4492 10.668 15.2266 9.97266 14.7812C9.28516 14.3359 8.73828 13.7344 8.33203 12.9766C7.92578 12.2188 7.72266 11.3711 7.72266 10.4336C7.72266 9.53516 7.92578 8.71484 8.33203 7.97266C8.74609 7.22266 9.29688 6.625 9.98438 6.17969C10.6797 5.73438 11.4492 5.51172 12.293 5.51172C13.1289 5.51172 13.8906 5.73438 14.5781 6.17969C15.2734 6.61719 15.8242 7.20703 16.2305 7.94922C16.6445 8.69141 16.8516 9.51562 16.8516 10.4219C16.8516 11.3594 16.6484 12.207 16.2422 12.9648C15.8359 13.7227 15.2852 14.3281 14.5898 14.7812C13.9023 15.2266 13.1367 15.4492 12.293 15.4492ZM12.293 14.3828C12.9336 14.3828 13.5117 14.207 14.0273 13.8555C14.5508 13.5039 14.9648 13.0312 15.2695 12.4375C15.582 11.8359 15.7383 11.1641 15.7383 10.4219C15.7383 9.71094 15.582 9.06641 15.2695 8.48828C14.957 7.90234 14.5391 7.4375 14.0156 7.09375C13.5 6.75 12.9258 6.57812 12.293 6.57812C11.6602 6.57812 11.082 6.75391 10.5586 7.10547C10.0352 7.44922 9.61719 7.91406 9.30469 8.5C8.99219 9.07812 8.83594 9.72266 8.83594 10.4336C8.83594 11.1758 8.98828 11.8477 9.29297 12.4492C9.60547 13.043 10.0234 13.5156 10.5469 13.8672C11.0703 14.2109 11.6523 14.3828 12.293 14.3828Z" />
</svg>
