<svg width="27" height="29" viewBox="0 0 27 29" xmlns="http://www.w3.org/2000/svg">
<path d="M13.3711 26.3867C11.8086 26.3867 10.3398 26.0859 8.96484 25.4844C7.59766 24.8906 6.39062 24.0703 5.34375 23.0234C4.29688 21.9766 3.47266 20.7695 2.87109 19.4023C2.27734 18.0273 1.98047 16.5586 1.98047 14.9961C1.98047 13.4414 2.27734 11.9766 2.87109 10.6016C3.46484 9.22656 4.28516 8.01562 5.33203 6.96875C6.38672 5.92188 7.59766 5.10156 8.96484 4.50781C10.3398 3.91406 11.8047 3.61719 13.3594 3.61719C14.9141 3.61719 16.3789 3.91406 17.7539 4.50781C19.1289 5.10156 20.3398 5.92188 21.3867 6.96875C22.4336 8.01562 23.2539 9.22656 23.8477 10.6016C24.4492 11.9766 24.75 13.4414 24.75 14.9961C24.75 16.5586 24.4531 18.0273 23.8594 19.4023C23.2656 20.7695 22.4453 21.9766 21.3984 23.0234C20.3516 24.0703 19.1406 24.8906 17.7656 25.4844C16.3906 26.0859 14.9258 26.3867 13.3711 26.3867ZM9.69141 19.6836C9.98047 19.6836 10.2188 19.5859 10.4062 19.3906L13.3711 16.4141L16.3477 19.3906C16.5273 19.5859 16.7617 19.6836 17.0508 19.6836C17.332 19.6836 17.5664 19.5859 17.7539 19.3906C17.9492 19.1875 18.0469 18.9492 18.0469 18.6758C18.0469 18.3945 17.9492 18.1641 17.7539 17.9844L14.7656 15.0078L17.7656 12.0195C17.9609 11.832 18.0586 11.6016 18.0586 11.3281C18.0586 11.0547 17.9609 10.8242 17.7656 10.6367C17.5781 10.4414 17.3477 10.3438 17.0742 10.3438C16.8086 10.3438 16.5781 10.4414 16.3828 10.6367L13.3711 13.6367L10.3828 10.6484C10.1797 10.4531 9.94922 10.3555 9.69141 10.3555C9.41797 10.3555 9.18359 10.4531 8.98828 10.6484C8.80078 10.8359 8.70703 11.0664 8.70703 11.3398C8.70703 11.6133 8.80469 11.8438 9 12.0312L11.9883 15.0078L9 17.9961C8.80469 18.1914 8.70703 18.418 8.70703 18.6758C8.70703 18.9492 8.80078 19.1875 8.98828 19.3906C9.18359 19.5859 9.41797 19.6836 9.69141 19.6836Z"/>
</svg>
