<svg width="24" height="29" viewBox="0 0 24 29" xmlns="http://www.w3.org/2000/svg">
<path d="M3.15234 23.5508C3.00391 23.4102 2.90625 23.2422 2.85938 23.0469C2.8125 22.8516 2.8125 22.6562 2.85938 22.4609C2.91406 22.2656 3.01172 22.0977 3.15234 21.957L10.0898 15.0078L3.15234 8.07031C3.01172 7.92969 2.91797 7.76172 2.87109 7.56641C2.82422 7.37109 2.82422 7.17969 2.87109 6.99219C2.91797 6.79687 3.01172 6.625 3.15234 6.47656C3.29297 6.32812 3.46094 6.23047 3.65625 6.18359C3.85156 6.13672 4.04297 6.14062 4.23047 6.19531C4.42578 6.24219 4.59766 6.33594 4.74609 6.47656L11.6836 13.4258L18.6445 6.47656C18.8555 6.26562 19.1172 6.16016 19.4297 6.16016C19.7422 6.16016 20.0078 6.26562 20.2266 6.47656C20.4453 6.6875 20.5547 6.95313 20.5547 7.27344C20.5547 7.59375 20.4492 7.85938 20.2383 8.07031L13.2773 15.0078L20.2383 21.957C20.4492 22.168 20.5547 22.4336 20.5547 22.7539C20.5547 23.0664 20.4453 23.332 20.2266 23.5508C20.0078 23.7695 19.7422 23.875 19.4297 23.8672C19.1172 23.8672 18.8555 23.7617 18.6445 23.5508L11.6836 16.6016L4.74609 23.5508C4.59766 23.6914 4.42578 23.7852 4.23047 23.832C4.04297 23.8867 3.85156 23.8867 3.65625 23.832C3.46094 23.7852 3.29297 23.6914 3.15234 23.5508Z"/>
</svg>
