<svg width="237" height="33" viewBox="0 0 237 33" fill="none" xmlns="http://www.w3.org/2000/svg">
<path fill-rule="evenodd" clip-rule="evenodd" d="M47.228 29.0816H34.7765C38.7814 26.1607 41.387 21.4235 41.387 16.0714C41.387 7.19643 34.2229 0 25.3877 0H0.5V19.3878H3.54748V3.06122H15.999C11.9941 5.98214 9.38847 10.7194 9.38847 16.0714C9.38847 24.9464 16.5526 32.1429 25.3877 32.1429H50.2754V12.7551H47.228V29.0816ZM12.4359 16.0714C12.4359 8.89796 18.2465 3.06122 25.3877 3.06122C32.529 3.06122 38.3395 8.89796 38.3395 16.0714C38.3395 16.4643 38.3192 16.852 38.2836 17.2372L32.1658 11.0893L24.1433 19.148L19.6661 14.6505L13.3883 20.9566C12.7765 19.4475 12.4385 17.7982 12.4385 16.0714H12.4359ZM14.4676 23.051C14.2717 22.7428 14.0883 22.4257 13.9181 22.1005C14.0884 22.4255 14.2719 22.7425 14.4676 23.051ZM14.5031 23.1097C14.6403 23.3214 14.7825 23.5306 14.9298 23.7347C14.78 23.5306 14.6403 23.3214 14.5031 23.1097ZM14.9298 23.7372L19.6635 18.9821L21.9872 21.3163L17.1875 26.1378C16.3367 25.4388 15.5799 24.6301 14.9298 23.7372ZM19.1429 27.4694C19.3639 27.5918 19.5899 27.7092 19.821 27.8214C19.5899 27.7117 19.3664 27.5944 19.1429 27.4694ZM19.821 27.8214L32.1633 15.4235L37.4684 20.7526C37.4959 20.6815 37.5227 20.6105 37.5489 20.5391C35.7324 25.5204 30.968 29.0867 25.3852 29.0867C23.3942 29.0867 21.5073 28.6327 19.821 27.8214ZM50.2754 0H41.387V3.06122H50.2754V0ZM125.876 22.3504C126.963 22.9744 128.18 23.2864 129.526 23.2864C130.872 23.2864 132.079 22.9744 133.149 22.3504C134.219 21.7091 135.065 20.8424 135.686 19.7504C136.324 18.6584 136.644 17.4278 136.644 16.0584V4.20243C136.644 3.80376 136.523 3.48309 136.281 3.24043C136.04 2.99776 135.72 2.87643 135.324 2.87643C134.944 2.87643 134.625 2.99776 134.366 3.24043C134.124 3.48309 134.003 3.80376 134.003 4.20243V11.2224C133.417 10.4944 132.692 9.92243 131.829 9.50643C130.966 9.07309 130.026 8.85643 129.008 8.85643C127.748 8.85643 126.618 9.17709 125.617 9.81843C124.616 10.4424 123.823 11.3004 123.236 12.3924C122.667 13.4671 122.382 14.6891 122.382 16.0584C122.382 17.4278 122.692 18.6584 123.314 19.7504C123.952 20.8424 124.806 21.7091 125.876 22.3504ZM131.881 20.3224C131.191 20.7384 130.406 20.9464 129.526 20.9464C128.663 20.9464 127.878 20.7384 127.17 20.3224C126.48 19.8891 125.928 19.2998 125.514 18.5544C125.117 17.8091 124.918 16.9771 124.918 16.0584C124.918 15.1224 125.117 14.2904 125.514 13.5624C125.928 12.8344 126.48 12.2624 127.17 11.8464C127.878 11.4131 128.663 11.1964 129.526 11.1964C130.406 11.1964 131.191 11.4131 131.881 11.8464C132.571 12.2624 133.115 12.8344 133.512 13.5624C133.909 14.2904 134.107 15.1224 134.107 16.0584C134.107 16.9771 133.909 17.8091 133.512 18.5544C133.115 19.2998 132.571 19.8891 131.881 20.3224ZM116.904 23.2084C116.524 23.2084 116.205 23.0871 115.946 22.8444C115.705 22.5844 115.584 22.2638 115.584 21.8824V15.4864C115.584 14.4984 115.403 13.6924 115.04 13.0684C114.678 12.4444 114.186 11.9851 113.565 11.6904C112.961 11.3784 112.262 11.2224 111.468 11.2224C110.744 11.2224 110.088 11.3698 109.501 11.6644C108.915 11.9591 108.449 12.3578 108.104 12.8604C107.759 13.3458 107.586 13.9091 107.586 14.5504V21.8824C107.586 22.2638 107.465 22.5844 107.224 22.8444C106.982 23.0871 106.663 23.2084 106.266 23.2084C105.886 23.2084 105.567 23.0871 105.308 22.8444C105.067 22.5844 104.946 22.2638 104.946 21.8824V10.2864C104.946 9.88776 105.067 9.56709 105.308 9.32443C105.567 9.08176 105.886 8.96043 106.266 8.96043C106.663 8.96043 106.982 9.08176 107.224 9.32443C107.465 9.56709 107.586 9.88776 107.586 10.2864V10.5624C107.97 10.1829 108.41 9.85694 108.906 9.58443C109.821 9.08176 110.847 8.83043 111.986 8.83043C113.177 8.83043 114.238 9.09043 115.17 9.61043C116.119 10.1131 116.861 10.8584 117.396 11.8464C117.948 12.8344 118.224 14.0478 118.224 15.4864V21.8824C118.224 22.2638 118.095 22.5844 117.836 22.8444C117.594 23.0871 117.284 23.2084 116.904 23.2084ZM89.4728 22.3504C90.4736 22.9744 91.6038 23.2864 92.8635 23.2864C94.1231 23.2864 95.2534 22.9744 96.2542 22.3504C96.8711 21.9551 97.406 21.4775 97.8589 20.9176V21.8824C97.8589 22.2638 97.9797 22.5844 98.2213 22.8444C98.4801 23.0871 98.7994 23.2084 99.179 23.2084C99.5586 23.2084 99.8692 23.0871 100.111 22.8444C100.37 22.5844 100.499 22.2638 100.499 21.8824V16.0844C100.499 14.7151 100.18 13.4844 99.5414 12.3924C98.9202 11.3004 98.0746 10.4424 97.0048 9.81843C95.935 9.17709 94.7271 8.85643 93.3812 8.85643C92.0352 8.85643 90.8187 9.17709 89.7316 9.81843C88.6618 10.4424 87.8076 11.3004 87.1692 12.3924C86.548 13.4844 86.2374 14.7151 86.2374 16.0844C86.2374 17.4538 86.5221 18.6844 87.0915 19.7764C87.6782 20.8511 88.472 21.7091 89.4728 22.3504ZM95.7365 20.3224C95.0463 20.7384 94.2612 20.9464 93.3812 20.9464C92.5184 20.9464 91.7333 20.7384 91.0258 20.3224C90.3356 19.8891 89.7834 19.3084 89.3693 18.5804C88.9724 17.8351 88.7739 17.0031 88.7739 16.0844C88.7739 15.1484 88.9724 14.3164 89.3693 13.5884C89.7834 12.8431 90.3356 12.2624 91.0258 11.8464C91.7333 11.4131 92.5184 11.1964 93.3812 11.1964C94.2612 11.1964 95.0463 11.4131 95.7365 11.8464C96.4268 12.2624 96.9703 12.8431 97.3672 13.5884C97.764 14.3164 97.9625 15.1484 97.9625 16.0844C97.9625 17.0031 97.764 17.8351 97.3672 18.5804C96.9703 19.3084 96.4268 19.8891 95.7365 20.3224ZM70.6037 22.9484C70.8453 23.1044 71.1041 23.1824 71.3802 23.1824C71.6736 23.1824 71.9324 23.1044 72.1567 22.9484C72.3983 22.7751 72.5536 22.5671 72.6226 22.3244L75.2855 12.8879L77.8251 22.3244C77.8942 22.5671 78.0495 22.7751 78.291 22.9484C78.5326 23.1044 78.7914 23.1824 79.0675 23.1824C79.3609 23.1824 79.6197 23.1044 79.844 22.9484C80.0683 22.7751 80.215 22.5671 80.284 22.3244L84.1148 10.7804C84.3046 10.2431 84.3132 9.80976 84.1406 9.48043C83.9681 9.13376 83.6402 8.96043 83.1571 8.96043C82.5014 8.96043 82.0527 9.35909 81.8111 10.1564L78.9721 19.0988L76.6345 9.94843C76.5655 9.65376 76.4188 9.41976 76.1945 9.24643C75.9874 9.05576 75.7113 8.96043 75.3662 8.96043C75.0039 8.96043 74.7191 9.05576 74.5121 9.24643C74.305 9.41976 74.1583 9.65376 74.0721 9.94843L71.4274 18.9227L68.6366 10.1564C68.4985 9.72309 68.3174 9.41976 68.093 9.24643C67.886 9.05576 67.6185 8.96043 67.2907 8.96043C66.7903 8.96043 66.4624 9.13376 66.3071 9.48043C66.1691 9.80976 66.1691 10.2431 66.3071 10.7804L70.1378 22.3244C70.2241 22.5671 70.3794 22.7751 70.6037 22.9484ZM148.475 23.2864C147.043 23.2864 145.766 22.9831 144.645 22.3764C143.54 21.7524 142.669 20.9031 142.03 19.8284C141.409 18.7364 141.099 17.4884 141.099 16.0844C141.099 14.6631 141.392 13.4151 141.979 12.3404C142.583 11.2484 143.411 10.3991 144.464 9.79243C145.516 9.16843 146.724 8.85643 148.087 8.85643C149.433 8.85643 150.589 9.15976 151.556 9.76643C152.522 10.3558 153.255 11.1791 153.756 12.2364C154.273 13.2764 154.532 14.4811 154.532 15.8504C154.532 16.1798 154.42 16.4571 154.196 16.6824C153.971 16.8904 153.687 16.9944 153.341 16.9944H143.499C143.594 17.5871 143.786 18.1331 144.075 18.6324C144.507 19.3778 145.102 19.9671 145.861 20.4004C146.62 20.8338 147.492 21.0504 148.475 21.0504C149.01 21.0504 149.554 20.9551 150.106 20.7644C150.675 20.5564 151.133 20.3224 151.478 20.0624C151.737 19.8718 152.013 19.7764 152.306 19.7764C152.617 19.7591 152.884 19.8458 153.109 20.0364C153.402 20.2964 153.557 20.5824 153.574 20.8944C153.592 21.2064 153.454 21.4751 153.16 21.7004C152.574 22.1684 151.84 22.5498 150.96 22.8444C150.097 23.1391 149.269 23.2864 148.475 23.2864ZM143.972 13.5364C143.765 13.9619 143.617 14.4212 143.528 14.9144H152.149C152.073 14.3376 151.918 13.8089 151.685 13.3284C151.357 12.6351 150.891 12.0891 150.287 11.6904C149.683 11.2918 148.95 11.0924 148.087 11.0924C147.104 11.0924 146.258 11.3091 145.551 11.7424C144.86 12.1758 144.334 12.7738 143.972 13.5364ZM161.005 14.2904V21.8824C161.005 22.2984 160.893 22.6191 160.669 22.8444C160.462 23.0698 160.143 23.1824 159.711 23.1824C159.297 23.1824 158.978 23.0784 158.753 22.8704C158.529 22.6451 158.417 22.3158 158.417 21.8824V10.2604C158.417 9.84443 158.529 9.52376 158.753 9.29843C158.978 9.07309 159.297 8.96043 159.711 8.96043C160.143 8.96043 160.462 9.07309 160.669 9.29843C160.893 9.50643 161.005 9.82709 161.005 10.2604V10.7407C161.428 10.2602 161.929 9.85745 162.507 9.53243C163.369 9.04709 164.318 8.80443 165.354 8.80443C166.389 8.80443 167.157 8.97776 167.657 9.32443C168.175 9.65376 168.373 10.0524 168.253 10.5204C168.201 10.7631 168.097 10.9538 167.942 11.0924C167.804 11.2138 167.64 11.2918 167.45 11.3264C167.26 11.3611 167.053 11.3524 166.829 11.3004C165.725 11.0751 164.732 11.0578 163.852 11.2484C162.972 11.4391 162.274 11.7944 161.756 12.3144C161.256 12.8344 161.005 13.4931 161.005 14.2904ZM176.673 23.2864C175.465 23.2864 174.344 23.1044 173.308 22.7404C172.29 22.3591 171.497 21.8824 170.927 21.3104C170.668 21.0331 170.556 20.7211 170.591 20.3744C170.642 20.0104 170.815 19.7158 171.108 19.4904C171.453 19.2131 171.79 19.1004 172.118 19.1524C172.463 19.1871 172.756 19.3344 172.998 19.5944C173.291 19.9238 173.757 20.2358 174.395 20.5304C175.051 20.8078 175.776 20.9464 176.57 20.9464C177.57 20.9464 178.33 20.7818 178.847 20.4524C179.382 20.1231 179.658 19.6984 179.676 19.1784C179.693 18.6584 179.443 18.2078 178.925 17.8264C178.425 17.4451 177.501 17.1331 176.156 16.8904C174.413 16.5438 173.144 16.0238 172.351 15.3304C171.574 14.6371 171.186 13.7878 171.186 12.7824C171.186 11.8984 171.445 11.1704 171.962 10.5984C172.48 10.0091 173.144 9.57576 173.955 9.29843C174.766 9.00376 175.612 8.85643 176.492 8.85643C177.631 8.85643 178.64 9.03843 179.52 9.40243C180.4 9.76643 181.099 10.2691 181.617 10.9104C181.858 11.1878 181.971 11.4824 181.953 11.7944C181.936 12.0891 181.789 12.3404 181.513 12.5484C181.237 12.7391 180.909 12.7998 180.53 12.7304C180.15 12.6611 179.831 12.5051 179.572 12.2624C179.141 11.8464 178.675 11.5604 178.174 11.4044C177.674 11.2484 177.096 11.1704 176.44 11.1704C175.681 11.1704 175.034 11.3004 174.499 11.5604C173.981 11.8204 173.722 12.2018 173.722 12.7044C173.722 13.0164 173.8 13.3024 173.955 13.5624C174.128 13.8051 174.456 14.0304 174.939 14.2384C175.422 14.4291 176.13 14.6198 177.061 14.8104C178.356 15.0704 179.374 15.3998 180.116 15.7984C180.875 16.1971 181.418 16.6651 181.746 17.2024C182.074 17.7224 182.238 18.3291 182.238 19.0224C182.238 19.8198 182.022 20.5391 181.591 21.1804C181.177 21.8218 180.556 22.3331 179.727 22.7144C178.916 23.0958 177.898 23.2864 176.673 23.2864ZM197.094 22.8444C197.353 23.0871 197.672 23.2084 198.052 23.2084C198.432 23.2084 198.742 23.0871 198.984 22.8444C199.243 22.5844 199.372 22.2638 199.372 21.8824V15.4864C199.372 14.0478 199.096 12.8344 198.544 11.8464C198.009 10.8584 197.267 10.1131 196.318 9.61043C195.386 9.09043 194.325 8.83043 193.134 8.83043C191.995 8.83043 190.969 9.08176 190.054 9.58443C189.558 9.85694 189.118 10.1829 188.734 10.5624V10.2864C188.734 9.88776 188.613 9.56709 188.372 9.32443C188.13 9.08176 187.811 8.96043 187.414 8.96043C187.034 8.96043 186.715 9.08176 186.456 9.32443C186.215 9.56709 186.094 9.88776 186.094 10.2864V21.8824C186.094 22.2638 186.215 22.5844 186.456 22.8444C186.715 23.0871 187.034 23.2084 187.414 23.2084C187.811 23.2084 188.13 23.0871 188.372 22.8444C188.613 22.5844 188.734 22.2638 188.734 21.8824V14.5504C188.734 13.9091 188.906 13.3458 189.252 12.8604C189.597 12.3578 190.063 11.9591 190.649 11.6644C191.236 11.3698 191.892 11.2224 192.616 11.2224C193.41 11.2224 194.109 11.3784 194.713 11.6904C195.334 11.9851 195.826 12.4444 196.188 13.0684C196.551 13.6924 196.732 14.4984 196.732 15.4864V21.8824C196.732 22.2638 196.853 22.5844 197.094 22.8444ZM210.156 23.2864C208.896 23.2864 207.766 22.9744 206.765 22.3504C205.764 21.7091 204.971 20.8511 204.384 19.7764C203.815 18.6844 203.53 17.4538 203.53 16.0844C203.53 14.7151 203.84 13.4844 204.462 12.3924C205.1 11.3004 205.954 10.4424 207.024 9.81843C208.111 9.17709 209.328 8.85643 210.674 8.85643C212.02 8.85643 213.227 9.17709 214.297 9.81843C215.367 10.4424 216.213 11.3004 216.834 12.3924C217.472 13.4844 217.792 14.7151 217.792 16.0844V21.8824C217.792 22.2638 217.662 22.5844 217.403 22.8444C217.162 23.0871 216.851 23.2084 216.471 23.2084C216.092 23.2084 215.773 23.0871 215.514 22.8444C215.272 22.5844 215.151 22.2638 215.151 21.8824V20.9176C214.698 21.4775 214.163 21.9551 213.547 22.3504C212.546 22.9744 211.416 23.2864 210.156 23.2864ZM210.674 20.9464C211.554 20.9464 212.339 20.7384 213.029 20.3224C213.719 19.8891 214.263 19.3084 214.66 18.5804C215.057 17.8351 215.255 17.0031 215.255 16.0844C215.255 15.1484 215.057 14.3164 214.66 13.5884C214.263 12.8431 213.719 12.2624 213.029 11.8464C212.339 11.4131 211.554 11.1964 210.674 11.1964C209.811 11.1964 209.026 11.4131 208.318 11.8464C207.628 12.2624 207.076 12.8431 206.662 13.5884C206.265 14.3164 206.066 15.1484 206.066 16.0844C206.066 17.0031 206.265 17.8351 206.662 18.5804C207.076 19.3084 207.628 19.8891 208.318 20.3224C209.026 20.7384 209.811 20.9464 210.674 20.9464ZM222.601 28.8764C222.86 29.1364 223.179 29.2664 223.558 29.2664C223.955 29.2664 224.274 29.1364 224.516 28.8764C224.758 28.6338 224.878 28.3218 224.878 27.9404V20.9204C225.482 21.6484 226.207 22.2291 227.053 22.6624C227.915 23.0784 228.856 23.2864 229.874 23.2864C231.134 23.2864 232.264 22.9744 233.265 22.3504C234.265 21.7091 235.051 20.8511 235.62 19.7764C236.207 18.6844 236.5 17.4538 236.5 16.0844C236.5 14.7151 236.181 13.4844 235.542 12.3924C234.921 11.3004 234.076 10.4424 233.006 9.81843C231.936 9.17709 230.719 8.85643 229.356 8.85643C228.01 8.85643 226.802 9.17709 225.733 9.81843C224.663 10.4424 223.817 11.3004 223.196 12.3924C222.575 13.4844 222.256 14.7151 222.238 16.0844V27.9404C222.238 28.3218 222.359 28.6338 222.601 28.8764ZM231.712 20.3224C231.021 20.7384 230.236 20.9464 229.356 20.9464C228.493 20.9464 227.708 20.7384 227.001 20.3224C226.311 19.8891 225.767 19.3084 225.37 18.5804C224.973 17.8351 224.775 17.0031 224.775 16.0844C224.775 15.1484 224.973 14.3164 225.37 13.5884C225.767 12.8431 226.311 12.2624 227.001 11.8464C227.708 11.4131 228.493 11.1964 229.356 11.1964C230.236 11.1964 231.021 11.4131 231.712 11.8464C232.402 12.2624 232.945 12.8431 233.342 13.5884C233.756 14.3164 233.963 15.1484 233.963 16.0844C233.963 17.0031 233.756 17.8351 233.342 18.5804C232.945 19.3084 232.402 19.8891 231.712 20.3224Z" fill="#F9F8FF"/>
</svg>
